<svg xmlns="http://www.w3.org/2000/svg" xmlns:xlink="http://www.w3.org/1999/xlink" width="24" height="24" viewBox="0 0 24 24">
  <defs>
    <clipPath id="clip-path">
      <rect id="Rectangle_1679" data-name="Rectangle 1679" width="24" height="24" transform="translate(-1521 -5733)" fill="#495662" stroke="#707070" stroke-width="1"/>
    </clipPath>
  </defs>
  <g id="Mask_Group_146" data-name="Mask Group 146" transform="translate(1521 5733)" clip-path="url(#clip-path)">
    <g id="backpack" transform="translate(-1519.23 -5731.296)">
      <g id="Frames-24px">
        <rect id="Rectangle_1678" data-name="Rectangle 1678" width="20.566" height="20.566" fill="none"/>
      </g>
      <g id="Outline" transform="translate(1.716 1.716)">
        <g id="Group_1476" data-name="Group 1476">
          <path id="Path_1899" data-name="Path 1899" d="M4.574,13A2.574,2.574,0,0,0,2,15.574H4.574Z" transform="translate(-2.003 -3.577)" fill="#495662"/>
          <path id="Path_1900" data-name="Path 1900" d="M5.86,8.858H7.574V6.287H9.287V8.858h3.428V6.287h1.714V8.858h1.714A.857.857,0,0,0,17,8V4.574A2.574,2.574,0,0,0,14.429,2H7.574A2.574,2.574,0,0,0,5,4.574V8A.857.857,0,0,0,5.86,8.858Z" transform="translate(-2.432 -2.003)" fill="#495662"/>
          <path id="Path_1901" data-name="Path 1901" d="M19,15.574h2.571A2.574,2.574,0,0,0,19,13Z" transform="translate(-4.436 -3.577)" fill="#495662"/>
          <path id="Path_1902" data-name="Path 1902" d="M19,17v4.284h1.714a.857.857,0,0,0,.857-.857V17Z" transform="translate(-4.436 -4.15)" fill="#495662"/>
          <path id="Path_1903" data-name="Path 1903" d="M4.574,17H2v3.428a.857.857,0,0,0,.857.857H4.574Z" transform="translate(-2.003 -4.15)" fill="#495662"/>
          <path id="Path_1904" data-name="Path 1904" d="M16.286,11H14.572v1.714H12.858V11H9.431v1.714H7.717V11H6v9.426H16.286Zm-2.571,5.141H8.574V14.431h5.141Z" transform="translate(-2.575 -3.291)" fill="#495662"/>
        </g>
      </g>
    </g>
  </g>
</svg>
