<svg xmlns="http://www.w3.org/2000/svg" xmlns:xlink="http://www.w3.org/1999/xlink" width="24" height="24" viewBox="0 0 24 24">
  <defs>
    <clipPath id="clip-path">
      <rect id="Rectangle_1764" data-name="Rectangle 1764" width="24" height="24" transform="translate(-1393 -5569)" fill="#495662" stroke="#707070" stroke-width="1"/>
    </clipPath>
  </defs>
  <g id="Mask_Group_190" data-name="Mask Group 190" transform="translate(1393 5569)" clip-path="url(#clip-path)">
    <g id="travel-beach" transform="translate(-1392.999 -5569)">
      <g id="Frames-24px">
        <rect id="Rectangle_1762" data-name="Rectangle 1762" width="24" height="24.001" fill="none"/>
        <rect id="Rectangle_1763" data-name="Rectangle 1763" width="24" height="24.001" fill="none"/>
      </g>
      <g id="Outline" transform="translate(2.815 1.815)">
        <g id="Group_1505" data-name="Group 1505" transform="translate(1.002 2.002)">
          <path id="Path_1976" data-name="Path 1976" d="M7.928,10.689l1.459,5.029c.5-.124,1.011-.241,1.537-.349L9.441,10.257a5.858,5.858,0,0,1,6.964-1.41,7.864,7.864,0,0,0-9.07-5.459L7.1,2.57a.786.786,0,1,0-1.511.438l.243.839A7.866,7.866,0,0,0,1.3,13.229a5.87,5.87,0,0,1,6.63-2.541Z" transform="translate(-1.002 -2.002)" fill="#495662"/>
          <path id="Path_1977" data-name="Path 1977" d="M4,22.936h14.95V19C10.3,19,4,22.149,4,22.936Z" transform="translate(-1.642 -5.626)" fill="#495662"/>
        </g>
      </g>
    </g>
  </g>
</svg>
