<svg xmlns="http://www.w3.org/2000/svg" xmlns:xlink="http://www.w3.org/1999/xlink" width="24" height="24" viewBox="0 0 24 24">
  <defs>
    <clipPath id="clip-path">
      <rect id="Rectangle_1651" data-name="Rectangle 1651" width="24" height="24" transform="translate(-1777 -5856)" fill="#495662"/>
    </clipPath>
  </defs>
  <g id="Mask_Group_121" data-name="Mask Group 121" transform="translate(1777 5856)" clip-path="url(#clip-path)">
    <g id="View_our_account_guide" data-name="View our account guide" transform="translate(-2681.075 -6512.876)">
      <g id="Group_26" data-name="Group 26" transform="translate(361.441 258.786)">
        <path id="Path_1075" data-name="Path 1075" d="M554.586,403.112l-1.432-1.146a1.037,1.037,0,0,0-.65-.228h-6.247a1.041,1.041,0,0,0-1.041,1.041v13.535a1.041,1.041,0,0,0,1.041,1.041h5.881l2.447,1.926Z" fill="#495662"/>
        <path id="Path_1076" data-name="Path 1076" d="M561.1,401.738h-6.247a1.037,1.037,0,0,0-.65.228l-1.432,1.146v16.169l2.447-1.926H561.1a1.041,1.041,0,0,0,1.041-1.041V402.779A1.041,1.041,0,0,0,561.1,401.738Z" transform="translate(2.86 0)" fill="#495662"/>
      </g>
    </g>
  </g>
</svg>
