<svg xmlns="http://www.w3.org/2000/svg" xmlns:xlink="http://www.w3.org/1999/xlink" width="24" height="24" viewBox="0 0 24 24">
  <defs>
    <clipPath id="clip-path">
      <rect id="Rectangle_1771" data-name="Rectangle 1771" width="24" height="24" transform="translate(-1585 -5569)" fill="#495662" stroke="#707070" stroke-width="1"/>
    </clipPath>
  </defs>
  <g id="Mask_Group_193" data-name="Mask Group 193" transform="translate(1585 5569)" clip-path="url(#clip-path)">
    <g id="rewards-banner-check" transform="translate(-1585 -5569)">
      <g id="Frames-24px">
        <rect id="Rectangle_1770" data-name="Rectangle 1770" width="24" height="24" fill="none"/>
      </g>
      <g id="Solid" transform="translate(0 1.659)">
        <path id="Path_1984" data-name="Path 1984" d="M16.438,2H7.74A1.742,1.742,0,0,0,6,3.74V18.527a.869.869,0,0,0,1.352.724l4.737-3.158,4.736,3.157a.869.869,0,0,0,1.353-.723V3.74A1.742,1.742,0,0,0,16.438,2ZM11.219,12.236,7.841,8.858,9.378,7.32l1.841,1.841L14.8,5.58l1.538,1.538Z" fill="#495662"/>
      </g>
    </g>
  </g>
</svg>
