<svg xmlns="http://www.w3.org/2000/svg" xmlns:xlink="http://www.w3.org/1999/xlink" width="24" height="24" viewBox="0 0 24 24">
  <defs>
    <clipPath id="clip-path">
      <rect id="Rectangle_1723" data-name="Rectangle 1723" width="24" height="24" transform="translate(-1521 -5651)" fill="#495662" stroke="#707070" stroke-width="1"/>
    </clipPath>
  </defs>
  <g id="Mask_Group_172" data-name="Mask Group 172" transform="translate(1521 5651)" clip-path="url(#clip-path)">
    <g id="espresso-machine" transform="translate(-1521 -5651)">
      <g id="Frames-24px">
        <rect id="Rectangle_1722" data-name="Rectangle 1722" width="24.001" height="24.001" fill="none"/>
      </g>
      <g id="Outline" transform="translate(1 1.174)">
        <g id="Group_1487" data-name="Group 1487" transform="translate(2.003 3.002)">
          <path id="Path_1939" data-name="Path 1939" d="M4.807,13.806h1.87v.935h1.87v-.935h.935V11H2v1.87h2.8Z" transform="translate(-2.003 -3.524)" fill="#495662"/>
          <path id="Path_1940" data-name="Path 1940" d="M19.764,3H5.742a.935.935,0,0,0-.935.935V8.611a.935.935,0,0,0,.935.935h4.674v8.413H2v1.87H20.7V3.937A.935.935,0,0,0,19.764,3ZM8.079,7.676a1.4,1.4,0,1,1,1.4-1.4A1.4,1.4,0,0,1,8.079,7.676Zm10.75,10.283h-2.8V13.285a1.87,1.87,0,0,1,1.87-1.87h.935Zm0-10.283H15.09V6.741h3.739Zm0-1.87H15.09V4.872h3.739Z" transform="translate(-2.003 -3.002)" fill="#495662"/>
        </g>
      </g>
    </g>
  </g>
</svg>
