<svg xmlns="http://www.w3.org/2000/svg" xmlns:xlink="http://www.w3.org/1999/xlink" width="24" height="24" viewBox="0 0 24 24">
  <defs>
    <clipPath id="clip-path">
      <rect id="Rectangle_1806" data-name="Rectangle 1806" width="24" height="24" transform="translate(-1329 -5487)" fill="#fff" stroke="#707070" stroke-width="1"/>
    </clipPath>
  </defs>
  <g id="Mask_Group_209" data-name="Mask Group 209" transform="translate(1329 5487)" clip-path="url(#clip-path)">
    <g id="Dolla_Icon" data-name="Dolla Icon" transform="translate(-5814.747 -7086.498)">
      <path id="Path_1852" data-name="Path 1852" d="M4499.72,1615.212a1.766,1.766,0,0,0-.493-1.284,4.309,4.309,0,0,0-1.646-.915,13.048,13.048,0,0,1-1.792-.754,3.646,3.646,0,0,1-2.13-3.383,3.489,3.489,0,0,1,.924-2.5,3.926,3.926,0,0,1,2.5-1.161v-1.993h1.463v2.012a3.615,3.615,0,0,1,2.46,1.348,4.613,4.613,0,0,1,.868,2.912h-2.213a2.882,2.882,0,0,0-.517-1.815,1.682,1.682,0,0,0-1.4-.663,1.9,1.9,0,0,0-1.371.476,1.8,1.8,0,0,0-.493,1.362,1.7,1.7,0,0,0,.489,1.275,4.746,4.746,0,0,0,1.66.91,14.078,14.078,0,0,1,1.837.8,4.693,4.693,0,0,1,1.125.837,3.315,3.315,0,0,1,.7,1.092,3.8,3.8,0,0,1,.246,1.436,3.417,3.417,0,0,1-.944,2.5,4.176,4.176,0,0,1-2.64,1.135v1.782H4496.9v-1.774a3.889,3.889,0,0,1-3.758-4.214h2.221a2.539,2.539,0,0,0,.582,1.784,2.125,2.125,0,0,0,1.641.625,2.257,2.257,0,0,0,1.587-.5A1.732,1.732,0,0,0,4499.72,1615.212Z" fill="#495662"/>
    </g>
  </g>
</svg>
