<svg xmlns="http://www.w3.org/2000/svg" xmlns:xlink="http://www.w3.org/1999/xlink" width="24" height="24" viewBox="0 0 24 24">
  <defs>
    <clipPath id="clip-path">
      <rect id="Rectangle_1653" data-name="Rectangle 1653" width="24" height="24" transform="translate(-1841 -5815)" fill="#fff" stroke="#707070" stroke-width="1"/>
    </clipPath>
  </defs>
  <g id="Mask_Group_123" data-name="Mask Group 123" transform="translate(1841 5815)" clip-path="url(#clip-path)">
    <g id="Group_1414" data-name="Group 1414" transform="translate(-1081.078 -2326.665)">
      <g id="Group_1030" data-name="Group 1030" transform="translate(-754.386 -3484.885)">
        <g id="_" data-name=" " transform="translate(0 0)">
          <g id="Group_1410" data-name="Group 1410">
            <path id="Path_1673" data-name="Path 1673" d="M1116.862,428.77a4.507,4.507,0,0,0,2.495,1.386v-2.864c-2.911-.6-4.25-2.079-4.25-4,0-2.241,1.524-3.926,4.25-4.435v-1.733h3.187v1.638a8.572,8.572,0,0,1,4.25,1.894l-1.963,2.287a5.314,5.314,0,0,0-2.287-1.2v2.91l.439.092c2.633.555,3.948,2.195,3.948,4.135,0,2.1-1.294,3.881-4.389,4.366v1.663h-3.187v-1.661a7.943,7.943,0,0,1-4.643-2.4Zm2.495,3.7V430.9a4.992,4.992,0,0,1-2.518-1.247l-1.176,1.155a5.973,5.973,0,0,0,3.694,1.663Zm2.864-5.334c1.294.3,1.94,1.016,1.94,1.963,0,.832-.3,1.548-1.617,1.987v1.432c2.356-.277,3.6-1.409,3.6-3.626a3.506,3.506,0,0,0-3.211-3.4l-2.772-.508c-1.871-.346-2.4-1.132-2.4-2.125,0-1.455,1.6-1.917,1.6-1.917V419.51a3.879,3.879,0,0,0-3.419,3.788c0,1.548,1.016,2.633,3.441,3.187Zm-6.1,3.532h1.824l.231.116h-2.172Zm.046-7.946h1.386v.116h-1.39Zm.115-.462h1.363l-.046.115h-1.362Zm2.864,8.87v.115h-2.68l-.162-.115Zm-2.7-9.332h1.432l-.092.116H1116.4Zm.139,8.385h.485l.21.139h-.809Zm.069-8.731.092-.139h1.571l-.162.139Zm.485-.6h1.825l-.208.116h-1.732Zm2.01,10.741v.115h-1.894l-.231-.115Zm-1.386-11.2h1.386v.116H1117.6Zm1.386,11.664v.116h-.464l-.508-.116Zm-.439-12.126h.439v.116h-.739Zm.647,1.825a1.112,1.112,0,0,0-.9,1.108c0,.439.185.855.9,1.155Zm2.356,2.795v-6.72h-1.525v6.421Zm0,9.724v-6.49l-1.525-.3v6.791Zm2.98-12.242,1.062-1.2a6.054,6.054,0,0,0-3.211-1.34v1.525a5.128,5.128,0,0,1,2.148,1.016Zm-1.294,7.16a1.225,1.225,0,0,0-.855-1.176v2.31a1.144,1.144,0,0,0,.853-1.134Zm-.646-9.262h.808l.369.116h-1.176Zm0,.462h1.848l.185.116h-2.032Zm0,11.2h1.848l-.162.115h-1.686Zm0,.462h.947l-.462.116h-.485Zm.3-.924h2.125l-.115.115h-2.171Zm2.332-10.279-.046.116h-2.079l-.231-.116Zm-1.638,9.816h1.755l-.046.116h-1.871Zm1.293-9.354-.115.139h-.672l-.231-.139Zm-.924,8.87h1.617l-.069.139h-1.617Zm.184-.462h1.548l-.023.116h-1.547Z" transform="translate(-1114.712 -417.129)" fill="#495662"/>
          </g>
        </g>
      </g>
    </g>
  </g>
</svg>
