<svg xmlns="http://www.w3.org/2000/svg" xmlns:xlink="http://www.w3.org/1999/xlink" width="24" height="24" viewBox="0 0 24 24">
  <defs>
    <clipPath id="clip-path">
      <rect id="Rectangle_1721" data-name="Rectangle 1721" width="24" height="24" transform="translate(-1457 -5651)" fill="#495662" stroke="#707070" stroke-width="1"/>
    </clipPath>
  </defs>
  <g id="Mask_Group_171" data-name="Mask Group 171" transform="translate(1457 5651)" clip-path="url(#clip-path)">
    <g id="file-copy" transform="translate(-1457 -5651)">
      <g id="Frames-24px">
        <rect id="Rectangle_1720" data-name="Rectangle 1720" width="24" height="24" fill="none"/>
      </g>
      <g id="Outline" transform="translate(1.571 2.708)">
        <g id="Group_1486" data-name="Group 1486" transform="translate(3 1)">
          <path id="Path_1937" data-name="Path 1937" d="M14.434,1H8.579A1.581,1.581,0,0,0,7,2.579V13.635a1.581,1.581,0,0,0,1.579,1.579h7.9a1.581,1.581,0,0,0,1.579-1.579V4.621ZM13.317,5.738V1.79l3.948,3.948Z" transform="translate(-3.841 -1)" fill="#495662"/>
          <path id="Path_1938" data-name="Path 1938" d="M4.579,5H3V17.635a1.581,1.581,0,0,0,1.579,1.579h9.476V17.635H4.579Z" transform="translate(-3 -1.841)" fill="#495662"/>
        </g>
      </g>
    </g>
  </g>
</svg>
