<svg xmlns="http://www.w3.org/2000/svg" xmlns:xlink="http://www.w3.org/1999/xlink" width="24" height="24" viewBox="0 0 24 24">
  <defs>
    <clipPath id="clip-path">
      <rect id="Rectangle_1715" data-name="Rectangle 1715" width="24" height="24" transform="translate(-1329 -5692)" fill="#495662" stroke="#707070" stroke-width="1"/>
    </clipPath>
  </defs>
  <g id="Mask_Group_168" data-name="Mask Group 168" transform="translate(1329 5692)" clip-path="url(#clip-path)">
    <g id="data-download-5" transform="translate(-1329 -5692)">
      <g id="Frames-24px">
        <rect id="Rectangle_1714" data-name="Rectangle 1714" width="24" height="24" fill="none"/>
      </g>
      <g id="Solid" transform="translate(0.801 0.801)">
        <path id="Path_1931" data-name="Path 1931" d="M18.288,3H4.911A1.913,1.913,0,0,0,3,4.911V18.288A1.913,1.913,0,0,0,4.911,20.2H18.288A1.913,1.913,0,0,0,20.2,18.288V4.911A1.913,1.913,0,0,0,18.288,3ZM11.6,16.773l-4.5-4.5,1.351-1.351,2.191,2.192V6.822h1.911v6.293l2.191-2.191L16.1,12.275Z" transform="translate(0 0)" fill="#495662"/>
      </g>
    </g>
  </g>
</svg>
