<svg xmlns="http://www.w3.org/2000/svg" xmlns:xlink="http://www.w3.org/1999/xlink" width="24" height="24" viewBox="0 0 24 24">
  <defs>
    <clipPath id="clip-path">
      <rect id="Rectangle_1688" data-name="Rectangle 1688" width="24" height="24" transform="translate(-1393 -5774)" fill="#fff" stroke="#707070" stroke-width="1"/>
    </clipPath>
  </defs>
  <g id="Mask_Group_153" data-name="Mask Group 153" transform="translate(1393 5774)" clip-path="url(#clip-path)">
    <path id="email" d="M11.725-4.918H-6.209A2.07,2.07,0,0,0-8.278-2.849V8.9a2.07,2.07,0,0,0,2.068,2.068H11.725A2.07,2.07,0,0,0,13.795,8.9V-2.849a2.07,2.07,0,0,0-2.07-2.068ZM-6.9-2.56-.665,2.878-4.335,6.32a.686.686,0,0,0-.221.481.684.684,0,0,0,.188.494.7.7,0,0,0,.5.221.686.686,0,0,0,.475-.185L.377,3.8l.883.773a2.249,2.249,0,0,0,1.492.541,2.258,2.258,0,0,0,1.492-.541L5.127,3.8,8.906,7.33a.7.7,0,0,0,.475.185.682.682,0,0,0,.5-.221.693.693,0,0,0,.188-.494.68.68,0,0,0-.221-.479L6.178,2.878l6.238-5.434V8.9a.691.691,0,0,1-.691.691H-6.209A.691.691,0,0,1-6.9,8.9ZM3.344,3.523a.942.942,0,0,1-1.172,0l-8.1-7.063H11.442Z" transform="translate(-1383.833 -5765.081)" fill="#495662"/>
  </g>
</svg>
