<svg xmlns="http://www.w3.org/2000/svg" xmlns:xlink="http://www.w3.org/1999/xlink" width="24" height="24" viewBox="0 0 24 24">
  <defs>
    <clipPath id="clip-path">
      <rect id="Rectangle_1668" data-name="Rectangle 1668" width="24" height="24" transform="translate(-1521 -5815)" fill="#495662" stroke="#707070" stroke-width="1"/>
    </clipPath>
  </defs>
  <g id="Mask_Group_138" data-name="Mask Group 138" transform="translate(1521 5815)" clip-path="url(#clip-path)">
    <path id="food" d="M17.3,1.446,10.008,2.2V.752L17.182,0ZM4.975,2.719V1.273l-1.562.174.174,1.446ZM3.529,5.091H4.975V3.645H3.529Zm6.479,0H17.24V3.645H10.008ZM7.174.694h-1.5V7.231H7.116V.694ZM9.314,0H7.868V5.785H9.314Zm2.025,8.273h0a.712.712,0,0,0-.579-.289H2.777a1.028,1.028,0,0,0-.579.231v.058h0L0,11.165l1.157.868,1.157-1.562,1.157,6.306a.687.687,0,0,0,.694.579H9.256a.687.687,0,0,0,.694-.579l1.157-6.306,1.157,1.562,1.157-.868L11.339,8.273Z" transform="translate(-1517.306 -5811.333)" fill="#495662"/>
  </g>
</svg>
