<svg xmlns="http://www.w3.org/2000/svg" xmlns:xlink="http://www.w3.org/1999/xlink" width="24" height="24" viewBox="0 0 24 24">
  <defs>
    <clipPath id="clip-path">
      <rect id="Rectangle_1662" data-name="Rectangle 1662" width="24" height="24" transform="translate(-1716 -5777)" fill="#495662" stroke="#707070" stroke-width="1"/>
    </clipPath>
  </defs>
  <g id="Mask_Group_132" data-name="Mask Group 132" transform="translate(1716 5777)" clip-path="url(#clip-path)">
    <path id="world" d="M8.874,0a8.874,8.874,0,1,0,8.874,8.874A8.874,8.874,0,0,0,8.874,0Zm8.077,8.484H13.968A12.4,12.4,0,0,0,13,4.3l.937-.391.953-.414A8.038,8.038,0,0,1,16.952,8.484Zm-6.484,8.163-.047.086a.281.281,0,0,0,0,.086,8.851,8.851,0,0,1-1.125.133V13.233a9.116,9.116,0,0,1,2.7.641C11.468,14.928,10.937,15.874,10.468,16.647Zm2.219-2.484.93.406.68.3a8.078,8.078,0,0,1-2.867,1.68C11.835,15.85,12.272,15.046,12.686,14.163Zm-5.343,2.57L7.3,16.647c-.453-.781-1-1.726-1.492-2.781a9.062,9.062,0,0,1,2.679-.633v3.718a10.477,10.477,0,0,1-1.109-.125.437.437,0,0,0-.031-.094Zm-1.008-.18a8.109,8.109,0,0,1-2.875-1.711l.672-.3.945-.414A21.765,21.765,0,0,0,6.335,16.553ZM7.3,1.1l.047-.086a.281.281,0,0,0,0-.086A7.531,7.531,0,0,1,8.484.781V4.523A9.32,9.32,0,0,1,5.8,3.906,30.847,30.847,0,0,1,7.3,1.1ZM5.078,3.593l-.945-.414-.68-.3A8.109,8.109,0,0,1,6.335,1.2,24.2,24.2,0,0,0,5.078,3.593Zm5.343-2.578.047.086c.453.781,1,1.719,1.492,2.781a9.632,9.632,0,0,1-2.7.641V.781A7.625,7.625,0,0,1,10.39.906a.281.281,0,0,0,.031.109Zm1.008.187A8.077,8.077,0,0,1,14.3,2.883l-.68.3-.93.406C12.272,2.7,11.835,1.9,11.429,1.2ZM8.484,5.3V8.484H4.578A11.585,11.585,0,0,1,5.468,4.6a10.03,10.03,0,0,0,3.015.7Zm0,3.961v3.187a9.788,9.788,0,0,0-3.015.7,11.585,11.585,0,0,1-.914-3.906Zm.781,3.187V9.265h3.906a11.671,11.671,0,0,1-.914,3.906,9.952,9.952,0,0,0-2.992-.719Zm0-3.968V5.3a10.2,10.2,0,0,0,3.008-.711A11.671,11.671,0,0,1,13.186,8.5ZM2.859,3.476l.953.43c.312.141.625.281.953.414A12.4,12.4,0,0,0,3.8,8.5H.781A8.031,8.031,0,0,1,2.859,3.476ZM.781,9.265H3.8a12.358,12.358,0,0,0,.969,4.179l-.953.414-.953.414A8.031,8.031,0,0,1,.781,9.265Zm14.061,5.007-.953-.414-.937-.406a12.4,12.4,0,0,0,.969-4.187h3.031a8.077,8.077,0,0,1-2.062,5.007Z" transform="translate(-1713.239 -5774.239)" fill="#495662" stroke="#495662" stroke-width="0.7"/>
  </g>
</svg>
