<svg xmlns="http://www.w3.org/2000/svg" xmlns:xlink="http://www.w3.org/1999/xlink" width="24" height="24" viewBox="0 0 24 24">
  <defs>
    <clipPath id="clip-path">
      <rect id="Rectangle_1757" data-name="Rectangle 1757" width="24" height="24" transform="translate(-1841 -5610)" fill="#495662" stroke="#707070" stroke-width="1"/>
    </clipPath>
  </defs>
  <g id="Mask_Group_187" data-name="Mask Group 187" transform="translate(1841 5610)" clip-path="url(#clip-path)">
    <g id="gramophone" transform="translate(-1841 -5610)">
      <g id="Frames-24px">
        <rect id="Rectangle_1755" data-name="Rectangle 1755" width="24" height="24" fill="none"/>
      </g>
      <g id="Solid" transform="translate(1.464 1.956)">
        <g id="Group_1503" data-name="Group 1503" transform="translate(3 1.498)">
          <rect id="Rectangle_1756" data-name="Rectangle 1756" width="8.233" height="1.647" transform="translate(1.647 11.118)" fill="#495662"/>
          <path id="Path_1969" data-name="Path 1969" d="M17.377,9.452,12.5,1.785a.484.484,0,0,0-.884,0L6.735,9.452a.5.5,0,0,0,.37.829l8.255,1.377a1.008,1.008,0,0,1,.813.959v2.47H3v3.293H4.647v-.823h8.233v.823h1.647V16.733H17a.826.826,0,0,0,.823-.823V10.97A3.332,3.332,0,0,0,17.377,9.452Z" transform="translate(-3 -1.498)" fill="#495662"/>
        </g>
      </g>
    </g>
  </g>
</svg>
