<svg xmlns="http://www.w3.org/2000/svg" xmlns:xlink="http://www.w3.org/1999/xlink" width="24" height="24" viewBox="0 0 24 24">
  <defs>
    <clipPath id="clip-path">
      <rect id="Rectangle_1690" data-name="Rectangle 1690" width="24" height="24" transform="translate(-1393 -5733)" fill="#495662" stroke="#707070" stroke-width="1"/>
    </clipPath>
  </defs>
  <g id="Mask_Group_154" data-name="Mask Group 154" transform="translate(1393 5733)" clip-path="url(#clip-path)">
    <g id="banking-spendings-1" transform="translate(-1389.542 -5729.542)">
      <g id="Frames-24px">
        <rect id="Rectangle_1689" data-name="Rectangle 1689" width="17.537" height="17.537" fill="none"/>
      </g>
      <g id="Solid">
        <g id="Group_1478" data-name="Group 1478">
          <path id="Path_1909" data-name="Path 1909" d="M13.883,15.846a.732.732,0,0,1-.731.731H9.5v1.461h2.923a.732.732,0,0,1-.731.731H6.148L4.384,17V13.226l1.764-1.765h2.62v.731a.732.732,0,0,1-.731.731H6.576v1.461H8.038a2.195,2.195,0,0,0,2.192-2.192V10.731A.731.731,0,0,0,9.5,10H5.846a.723.723,0,0,0-.517.215L3.99,11.553a.72.72,0,0,0-.336-.092H.731A.731.731,0,0,0,0,12.192v5.846a.731.731,0,0,0,.731.731H3.654a.712.712,0,0,0,.336-.092l1.339,1.34a.734.734,0,0,0,.517.213h5.846a2.195,2.195,0,0,0,2.192-2.192V17.9a2.188,2.188,0,0,0,1.461-2.058v-.731H13.883ZM2.923,17.307H1.461V12.923H2.923Z" transform="translate(0 -2.693)" fill="#495662"/>
          <path id="Path_1910" data-name="Path 1910" d="M14.461,3v.768a1.827,1.827,0,0,0,.365,3.616h.731a.365.365,0,1,1,0,.731h-1.1v2.192h1.461V9.54a1.827,1.827,0,0,0-.365-3.617h-.731a.365.365,0,1,1,0-.731h2.557V3.731H15.923V3Z" transform="translate(-3.501 -0.808)" fill="#495662"/>
          <path id="Path_1911" data-name="Path 1911" d="M13.846,0a5.812,5.812,0,0,0-5.8,6.576H9.527a4.413,4.413,0,1,1,3.588,3.588v1.477a6.024,6.024,0,0,0,.731.05A5.846,5.846,0,0,0,13.846,0Z" transform="translate(-2.154)" fill="#495662"/>
        </g>
      </g>
    </g>
  </g>
</svg>
