<svg xmlns="http://www.w3.org/2000/svg" xmlns:xlink="http://www.w3.org/1999/xlink" width="24" height="24" viewBox="0 0 24 24">
  <defs>
    <clipPath id="clip-path">
      <rect id="Rectangle_1744" data-name="Rectangle 1744" width="24" height="24" transform="translate(-1457 -5610)" fill="#495662" stroke="#707070" stroke-width="1"/>
    </clipPath>
  </defs>
  <g id="Mask_Group_181" data-name="Mask Group 181" transform="translate(1457 5610)" clip-path="url(#clip-path)">
    <g id="lamp-studio-1" transform="translate(-1457 -5610)">
      <g id="Frames-24px">
        <rect id="Rectangle_1743" data-name="Rectangle 1743" width="24.001" height="24.001" fill="none"/>
      </g>
      <g id="Outline">
        <g id="Group_1499" data-name="Group 1499">
          <path id="Path_1959" data-name="Path 1959" d="M20,20V13a6.956,6.956,0,0,0-3.317-5.945A4.454,4.454,0,0,1,16.135,9.1,4.976,4.976,0,0,1,18,13v7H14v2h8V20Z" fill="#495662"/>
          <path id="Path_1960" data-name="Path 1960" d="M14.3,9.813l.367-.372A3.5,3.5,0,0,0,9.722,4.489l-.371.369A6.543,6.543,0,0,0,3.356,6.61l-.707.7a.5.5,0,0,0,0,.706l8.486,8.489a.518.518,0,0,0,.707,0l.708-.708A6.52,6.52,0,0,0,14.3,9.813Z" fill="#495662"/>
        </g>
      </g>
    </g>
  </g>
</svg>
