<svg xmlns="http://www.w3.org/2000/svg" xmlns:xlink="http://www.w3.org/1999/xlink" width="24" height="24" viewBox="0 0 24 24">
  <defs>
    <clipPath id="clip-path">
      <rect id="Rectangle_1820" data-name="Rectangle 1820" width="24" height="24" transform="translate(-1841 -5487)" fill="#495662" stroke="#707070" stroke-width="1"/>
    </clipPath>
  </defs>
  <g id="Mask_Group_217" data-name="Mask Group 217" transform="translate(1841 5487)" clip-path="url(#clip-path)">
    <g id="vote-heart-circle-1" transform="translate(-1841 -5487)">
      <g id="Frames-24px">
        <rect id="Rectangle_1819" data-name="Rectangle 1819" width="24" height="24" fill="none"/>
      </g>
      <g id="Solid" transform="translate(1.184 1.184)">
        <g id="Group_1531" data-name="Group 1531" transform="translate(2 2)">
          <g id="Group_1529" data-name="Group 1529">
            <g id="Group_1528" data-name="Group 1528">
              <path id="Path_2037" data-name="Path 2037" d="M10.946,19.891a8.945,8.945,0,1,1,8.946-8.946A8.956,8.956,0,0,1,10.946,19.891Zm0-16.1A7.156,7.156,0,1,0,18.1,10.945,7.164,7.164,0,0,0,10.946,3.789Z" transform="translate(-2 -2)" fill="#495662"/>
            </g>
          </g>
          <g id="Group_1530" data-name="Group 1530" transform="translate(3.579 4.473)">
            <path id="Path_2038" data-name="Path 2038" d="M11.368,16.839a.9.9,0,0,1-.461-.127c-.5-.3-4.907-3.035-4.907-6.135A3.387,3.387,0,0,1,9.579,7a2.669,2.669,0,0,1,1.789.756A2.669,2.669,0,0,1,13.157,7a3.387,3.387,0,0,1,3.579,3.577c0,3.1-4.405,5.834-4.907,6.135A.9.9,0,0,1,11.368,16.839ZM9.579,8.789a1.64,1.64,0,0,0-1.789,1.787c0,1.556,2.306,3.441,3.579,4.3,1.272-.863,3.579-2.749,3.579-4.3a1.64,1.64,0,0,0-1.789-1.787,1.046,1.046,0,0,0-.895.893.895.895,0,0,1-1.789,0A1.046,1.046,0,0,0,9.579,8.789Z" transform="translate(-6 -7)" fill="#495662"/>
          </g>
        </g>
      </g>
    </g>
  </g>
</svg>
