<svg xmlns="http://www.w3.org/2000/svg" xmlns:xlink="http://www.w3.org/1999/xlink" width="24" height="24" viewBox="0 0 24 24">
  <defs>
    <clipPath id="clip-path">
      <rect id="Rectangle_1673" data-name="Rectangle 1673" width="24" height="24" transform="translate(-1713 -5733)" fill="#495662" stroke="#707070" stroke-width="1"/>
    </clipPath>
  </defs>
  <g id="Mask_Group_143" data-name="Mask Group 143" transform="translate(1713 5733)" clip-path="url(#clip-path)">
    <g id="passport" transform="translate(-1710.483 -5728.857)">
      <g id="Layer_1-2" transform="translate(4.334 -0.161)">
        <path id="Path_1877" data-name="Path 1877" d="M5.94-.161,14.888.972V15.98h.623L15.681.689v-.85Z" transform="translate(-4.807 0.161)" fill="#495662"/>
        <path id="Path_1878" data-name="Path 1878" d="M10.274,10.01c.113.453.34.793.566.85l.057-.906A2.323,2.323,0,0,1,10.274,10.01Z" transform="translate(-6.083 -2.817)" fill="#495662"/>
        <path id="Path_1879" data-name="Path 1879" d="M12.677,6.284c.227,0,.51-.057.736-.057a2.413,2.413,0,0,0-1.133-.85,1.138,1.138,0,0,1,.227.453A.643.643,0,0,1,12.677,6.284Z" transform="translate(-6.674 -1.47)" fill="#495662"/>
        <path id="Path_1880" data-name="Path 1880" d="M10.114,7.7l.793.057h0V6.96a2.539,2.539,0,0,1-.68-.057A4.443,4.443,0,0,0,10.114,7.7Z" transform="translate(-6.036 -1.919)" fill="#495662"/>
        <path id="Path_1881" data-name="Path 1881" d="M11.058,6.237l.057-1.019c-.283.057-.51.453-.68.963A2.124,2.124,0,0,0,11.058,6.237Z" transform="translate(-6.131 -1.423)" fill="#495662"/>
        <path id="Path_1882" data-name="Path 1882" d="M10.114,8.348a5.5,5.5,0,0,0,.057.963h.68l.057-.906-.793-.057Z" transform="translate(-6.036 -2.345)" fill="#495662"/>
        <path id="Path_1883" data-name="Path 1883" d="M8.99,10.09a2.154,2.154,0,0,0,1.019.736,1.986,1.986,0,0,1-.34-.793A2.757,2.757,0,0,1,8.99,10.09Z" transform="translate(-5.705 -2.841)" fill="#495662"/>
        <path id="Path_1884" data-name="Path 1884" d="M10.236,5.3a1.466,1.466,0,0,0-.963.51l-.283.283a2.952,2.952,0,0,0,.793.113A1.726,1.726,0,0,1,10.236,5.3Z" transform="translate(-5.705 -1.446)" fill="#495662"/>
        <path id="Path_1885" data-name="Path 1885" d="M9.481,6.832l-.85-.17a1.711,1.711,0,0,0-.283.906h0l1.019.057A3.824,3.824,0,0,1,9.481,6.832Z" transform="translate(-5.516 -1.848)" fill="#495662"/>
        <path id="Path_1886" data-name="Path 1886" d="M9.424,9.287a5.5,5.5,0,0,1-.057-.963h0L8.348,8.268h0a2.343,2.343,0,0,0,.283,1.076A3.739,3.739,0,0,0,9.424,9.287Z" transform="translate(-5.516 -2.321)" fill="#495662"/>
        <path id="Path_1887" data-name="Path 1887" d="M12.149,5.84a1.116,1.116,0,0,0-.453-.623l-.057,1.019h.623A1.05,1.05,0,0,0,12.149,5.84Z" transform="translate(-6.485 -1.423)" fill="#495662"/>
        <path id="Path_1888" data-name="Path 1888" d="M12.98,7.809h0L14,7.866a1.861,1.861,0,0,0-.227-.963,4.286,4.286,0,0,1-.85.057A4.287,4.287,0,0,1,12.98,7.809Z" transform="translate(-6.863 -1.919)" fill="#495662"/>
        <path id="Path_1889" data-name="Path 1889" d="M12.763,9.391a4.443,4.443,0,0,0,.793.113,1.581,1.581,0,0,0,.34-1.019h0l-1.019-.057A4.492,4.492,0,0,1,12.763,9.391Z" transform="translate(-6.816 -2.368)" fill="#495662"/>
        <path id="Path_1890" data-name="Path 1890" d="M4.334,15.914H5.75c2.435.227,7.193.736,8.325.906V1.246L4.334,0ZM6.94,5.72A2.12,2.12,0,0,1,7.223,4.7c.057-.057.057-.17.113-.227A2.467,2.467,0,0,1,9.318,3.455h.227a2.429,2.429,0,0,1,1.812,1.133c.057.057.057.17.113.227a2.313,2.313,0,0,1-.17,2.265.782.782,0,0,0-.17.227,2.39,2.39,0,0,1-1.869.906h-.17A2.466,2.466,0,0,1,7.336,7.193a.429.429,0,0,1-.113-.227A1.939,1.939,0,0,1,6.94,5.72Z" transform="translate(-4.334 0.113)" fill="#495662"/>
        <path id="Path_1891" data-name="Path 1891" d="M12.04,10.907a2.117,2.117,0,0,0,1.133-.68c-.227-.057-.453-.057-.736-.113A2.092,2.092,0,0,1,12.04,10.907Z" transform="translate(-6.603 -2.864)" fill="#495662"/>
        <path id="Path_1892" data-name="Path 1892" d="M12,10.09c-.17,0-.4-.057-.623-.057l-.057.906C11.6,10.883,11.827,10.543,12,10.09Z" transform="translate(-6.39 -2.841)" fill="#495662"/>
        <path id="Path_1893" data-name="Path 1893" d="M12.328,7.856V7.743a2.757,2.757,0,0,0-.057-.68h-.736l-.057.793Z" transform="translate(-6.438 -1.966)" fill="#495662"/>
        <path id="Path_1894" data-name="Path 1894" d="M12.248,8.485l-.793-.057h0l-.057.906a2.757,2.757,0,0,1,.68.057A2.565,2.565,0,0,0,12.248,8.485Z" transform="translate(-6.414 -2.368)" fill="#495662"/>
      </g>
    </g>
  </g>
</svg>
