<svg xmlns="http://www.w3.org/2000/svg" xmlns:xlink="http://www.w3.org/1999/xlink" width="24" height="24" viewBox="0 0 24 24">
  <defs>
    <clipPath id="clip-path">
      <rect id="Rectangle_1655" data-name="Rectangle 1655" width="24" height="24" transform="translate(-1713 -5856)" fill="#fff"/>
    </clipPath>
  </defs>
  <g id="Mask_Group_125" data-name="Mask Group 125" transform="translate(1713 5856)" clip-path="url(#clip-path)">
    <g id="Travellers" transform="translate(-1823.287 -6321.564)">
      <g id="Group_24" data-name="Group 24" transform="translate(111.51 471.249)">
        <g id="Group_12" data-name="Group 12" transform="translate(11.434 0)">
          <circle id="Ellipse_3" data-name="Ellipse 3" cx="1.906" cy="1.906" r="1.906" transform="translate(1.271)" fill="#495662"/>
          <path id="Path_1067" data-name="Path 1067" d="M369.524,185.6a3.181,3.181,0,0,0-3.178,3.178v1.906a.636.636,0,0,0,.635.635h.635v2.542a.636.636,0,0,0,.635.635h2.542a.636.636,0,0,0,.635-.635v-2.544h.634a.636.636,0,0,0,.635-.635v-1.907a3.181,3.181,0,0,0-3.175-3.176Z" transform="translate(-366.346 -181.788)" fill="#495662"/>
        </g>
        <g id="Group_14" data-name="Group 14" transform="translate(18.164 5.19)">
          <circle id="Ellipse_3-2" data-name="Ellipse 3" cx="1.128" cy="1.128" r="1.128" transform="translate(0.752 0)" fill="#495662"/>
          <path id="Path_1067-2" data-name="Path 1067" d="M368.226,185.6a1.882,1.882,0,0,0-1.88,1.88v1.127a.376.376,0,0,0,.376.376h.376v1.5a.376.376,0,0,0,.376.376h1.5a.376.376,0,0,0,.376-.376v-1.5h.376a.376.376,0,0,0,.376-.376v-1.128A1.882,1.882,0,0,0,368.226,185.6Z" transform="translate(-366.346 -183.345)" fill="#495662"/>
        </g>
        <g id="Group_13" data-name="Group 13" transform="translate(4.333 0.635)">
          <circle id="Ellipse_4" data-name="Ellipse 4" cx="1.906" cy="1.906" r="1.906" transform="translate(1.271 0)" fill="#495662"/>
          <path id="Path_1068" data-name="Path 1068" d="M346.784,191.705l-.963-3.785a2.244,2.244,0,0,0-4.383-.035l-.971,3.82a.635.635,0,0,0,.6.789s.474.01.846.011c.122.364.3.931.468,1.451a.636.636,0,0,0,.606.444h1.271a.636.636,0,0,0,.606-.444c.163-.52.345-1.084.468-1.451.373,0,.846-.011.846-.011a.635.635,0,0,0,.6-.789Z" transform="translate(-340.449 -182.328)" fill="#495662"/>
        </g>
        <g id="Group_15" data-name="Group 15" transform="translate(-0.001 5.19)">
          <circle id="Ellipse_4-2" data-name="Ellipse 4" cx="1.187" cy="1.187" r="1.187" transform="translate(0.792 0)" fill="#495662"/>
          <path id="Path_1068-2" data-name="Path 1068" d="M344.395,189.607l-.6-2.357a1.4,1.4,0,0,0-2.73-.022l-.6,2.379a.394.394,0,0,0,.375.493s.3.006.527.007c.076.227.19.58.291.9a.394.394,0,0,0,.378.277h.792a.394.394,0,0,0,.378-.277c.1-.324.215-.677.291-.9.232,0,.527-.007.527-.007a.394.394,0,0,0,.375-.493Z" transform="translate(-340.448 -183.766)" fill="#495662"/>
        </g>
      </g>
    </g>
  </g>
</svg>
