<svg xmlns="http://www.w3.org/2000/svg" xmlns:xlink="http://www.w3.org/1999/xlink" width="24" height="24" viewBox="0 0 24 24">
  <defs>
    <clipPath id="clip-path">
      <rect id="Rectangle_1798" data-name="Rectangle 1798" width="24" height="24" transform="translate(-1713 -5528)" fill="#495662" stroke="#707070" stroke-width="1"/>
    </clipPath>
  </defs>
  <g id="Mask_Group_205" data-name="Mask Group 205" transform="translate(1713 5528)" clip-path="url(#clip-path)">
    <g id="user-add" transform="translate(-1713 -5528)">
      <g id="Frames-24px">
        <rect id="Rectangle_1797" data-name="Rectangle 1797" width="24" height="24" fill="none"/>
      </g>
      <g id="Solid" transform="translate(1.228 -0.702)">
        <g id="Group_1520" data-name="Group 1520" transform="translate(0 4)">
          <g id="Group_1518" data-name="Group 1518" transform="translate(0 3.596)">
            <path id="Path_2003" data-name="Path 2003" d="M7.6,15.193A3.6,3.6,0,1,0,4,11.6,3.6,3.6,0,0,0,7.6,15.193Z" transform="translate(-0.404 -8)" fill="#495662"/>
            <path id="Path_2004" data-name="Path 2004" d="M7.193,17C2.958,17,0,19.218,0,22.395v.9H14.386v-.9C14.386,19.218,11.428,17,7.193,17Z" transform="translate(0 -8.908)" fill="#495662"/>
          </g>
          <g id="Group_1519" data-name="Group 1519" transform="translate(12.588)">
            <path id="Path_2005" data-name="Path 2005" d="M21.193,6.7H18.5V4H16.7V6.7H14V8.5h2.7v2.7h1.8V8.5h2.7Z" transform="translate(-14 -4)" fill="#495662"/>
          </g>
        </g>
      </g>
    </g>
  </g>
</svg>
