<svg xmlns="http://www.w3.org/2000/svg" xmlns:xlink="http://www.w3.org/1999/xlink" width="24" height="24" viewBox="0 0 24 24">
  <defs>
    <clipPath id="clip-path">
      <rect id="Rectangle_1748" data-name="Rectangle 1748" width="24" height="24" transform="translate(-1585 -5610)" fill="#495662" stroke="#707070" stroke-width="1"/>
    </clipPath>
  </defs>
  <g id="Mask_Group_183" data-name="Mask Group 183" transform="translate(1585 5610)" clip-path="url(#clip-path)">
    <g id="id-card-1" transform="translate(-1585 -5610)">
      <g id="Frames-24px">
        <rect id="Rectangle_1747" data-name="Rectangle 1747" width="24" height="24" fill="none"/>
      </g>
      <g id="Solid">
        <path id="Path_1963" data-name="Path 1963" d="M20,5H14.815a2.981,2.981,0,0,0-5.63,0H4A2,2,0,0,0,2,7V19a2,2,0,0,0,2,2H20a2,2,0,0,0,2-2V7A2,2,0,0,0,20,5ZM8,9a2,2,0,1,1-2,2A2,2,0,0,1,8,9ZM5,17a2.793,2.793,0,0,1,3-3,2.793,2.793,0,0,1,3,3ZM12,7a1,1,0,1,1,1-1A1,1,0,0,1,12,7Zm7,10H13V15h6Zm0-4H13V11h6Z" fill="#495662"/>
      </g>
    </g>
  </g>
</svg>
