<svg xmlns="http://www.w3.org/2000/svg" xmlns:xlink="http://www.w3.org/1999/xlink" width="24" height="24" viewBox="0 0 24 24">
  <defs>
    <clipPath id="clip-path">
      <rect id="Rectangle_1649" data-name="Rectangle 1649" width="24" height="24" transform="translate(-1905 -5856)" fill="#fff"/>
    </clipPath>
    <filter id="Path_1074" x="-4.771" y="-2.514" width="33.191" height="33.192" filterUnits="userSpaceOnUse">
      <feOffset dy="1.697" input="SourceAlpha"/>
      <feGaussianBlur stdDeviation="2.545" result="blur"/>
      <feFlood flood-opacity="0.059"/>
      <feComposite operator="in" in2="blur"/>
      <feComposite in="SourceGraphic"/>
    </filter>
  </defs>
  <g id="Mask_Group_119" data-name="Mask Group 119" transform="translate(1905 5856)" clip-path="url(#clip-path)">
    <g id="Your_upcoming_flights" data-name="Your upcoming flights" transform="translate(-1957.157 -5992.86)">
      <g transform="matrix(1, 0, 0, 1, 52.16, 136.86)" filter="url(#Path_1074)">
        <path id="Path_1074-2" data-name="Path 1074" d="M16.743,3.619A5.186,5.186,0,0,0,17.921.881a1.012,1.012,0,0,0-.139-.559.446.446,0,0,0-.081-.1.47.47,0,0,0-.1-.074A1,1,0,0,0,17.038,0,5.172,5.172,0,0,0,14.3,1.179a23.582,23.582,0,0,0-2.693,2.595l-.592.622L8.881,3.757l.006-.006a.479.479,0,0,0,0-.674L8.5,2.69a.48.48,0,0,0-.34-.141.472.472,0,0,0-.338.14l-.577.577-.305-.091A.478.478,0,0,0,6.9,2.544l-.387-.387a.479.479,0,0,0-.34-.139.468.468,0,0,0-.336.14l-.529.529L3.14,2.037a.543.543,0,0,0-.155-.022.575.575,0,0,0-.4.163l-.763.763a.45.45,0,0,0-.134.315.438.438,0,0,0,.232.392L6.483,6.2a.8.8,0,0,1,.111.084l1.3,1.3c-1.219,1.282-2.3,2.524-3.147,3.6-.079.1-.154.2-.227.3l-3.53-.32a.477.477,0,0,0-.058,0,.651.651,0,0,0-.438.181L.139,11.7A.442.442,0,0,0,0,12.009a.434.434,0,0,0,.257.4l2.484,1.18a.58.58,0,0,1,.1.068l.206.2a1.509,1.509,0,0,0-.1.478.627.627,0,0,0,.174.458l.009.008h0a.629.629,0,0,0,.457.174,1.521,1.521,0,0,0,.474-.1l.21.209a.566.566,0,0,1,.065.093l1.177,2.478a.439.439,0,0,0,.4.261h0a.442.442,0,0,0,.314-.132l.365-.366a.65.65,0,0,0,.174-.436v-.044L6.435,13.4c.1-.073.194-.148.3-.226,1.082-.846,2.322-1.932,3.6-3.147l1.3,1.3a.7.7,0,0,1,.085.111L14.267,16a.443.443,0,0,0,.71.1l.768-.768a.58.58,0,0,0,.157-.4.549.549,0,0,0-.021-.15l-.65-2.171.529-.53a.479.479,0,0,0,0-.675l-.388-.388a.478.478,0,0,0-.632-.039l-.091-.3.58-.58a.482.482,0,0,0,.139-.339.472.472,0,0,0-.139-.337l-.386-.386a.478.478,0,0,0-.678,0l0,0-.638-2.129c.221-.211.431-.411.631-.6a23.493,23.493,0,0,0,2.59-2.687Z" transform="translate(2.86 3.42)" fill="#495662"/>
      </g>
    </g>
  </g>
</svg>
