<svg xmlns="http://www.w3.org/2000/svg" xmlns:xlink="http://www.w3.org/1999/xlink" width="24" height="24" viewBox="0 0 24 24">
  <defs>
    <clipPath id="clip-path">
      <rect id="Rectangle_1670" data-name="Rectangle 1670" width="24" height="24" transform="translate(-1905 -5733)" fill="#fff" stroke="#707070" stroke-width="1"/>
    </clipPath>
  </defs>
  <g id="Mask_Group_140" data-name="Mask Group 140" transform="translate(1905 5733)" clip-path="url(#clip-path)">
    <g id="plug" transform="translate(-1903.365 -5729.3)">
      <g id="Layer_1-2" transform="translate(4.896)">
        <path id="Path_1876" data-name="Path 1876" d="M15.307,5.147a.586.586,0,0,0-.585-.585h-1.17V.585A.586.586,0,0,0,12.967,0H12.09a.586.586,0,0,0-.585.585V4.562H8.7V.585A.586.586,0,0,0,8.113,0H7.236a.577.577,0,0,0-.585.526V4.562H5.481a.586.586,0,0,0-.585.585v6.316a1.039,1.039,0,0,0,.234.585l3.1,3.1a.751.751,0,0,1,.234.585v.936a.8.8,0,0,0,.819.819H10.92a.8.8,0,0,0,.819-.819h0V15.44a.939.939,0,0,1,.292-.643l2.983-2.456a.939.939,0,0,0,.292-.643V5.147Z" transform="translate(-4.896)" fill="#495662"/>
      </g>
    </g>
  </g>
</svg>
