<svg xmlns="http://www.w3.org/2000/svg" xmlns:xlink="http://www.w3.org/1999/xlink" width="24" height="24" viewBox="0 0 24 24">
  <defs>
    <clipPath id="clip-path">
      <rect id="Rectangle_1677" data-name="Rectangle 1677" width="24" height="24" transform="translate(-1585 -5733)" fill="#495662" stroke="#707070" stroke-width="1"/>
    </clipPath>
  </defs>
  <g id="Mask_Group_145" data-name="Mask Group 145" transform="translate(1585 5733)" clip-path="url(#clip-path)">
    <g id="baby-trolley" transform="translate(-1585 -5733)">
      <g id="Frames-24px">
        <rect id="Rectangle_1676" data-name="Rectangle 1676" width="24" height="24" fill="none"/>
      </g>
      <g id="Outline" transform="translate(1.356 1.507)">
        <g id="Group_1475" data-name="Group 1475" transform="translate(2.999 2)">
          <g id="Group_1472" data-name="Group 1472" transform="translate(1.77 14.155)">
            <circle id="Ellipse_364" data-name="Ellipse 364" cx="1.769" cy="1.769" r="1.769" fill="#495662"/>
          </g>
          <g id="Group_1473" data-name="Group 1473" transform="translate(7.078 14.155)">
            <circle id="Ellipse_365" data-name="Ellipse 365" cx="1.769" cy="1.769" r="1.769" fill="#495662"/>
          </g>
          <g id="Group_1474" data-name="Group 1474">
            <path id="Path_1896" data-name="Path 1896" d="M10.129,7.308h.259V2.885A.885.885,0,0,0,9.5,2H8.619A5.268,5.268,0,0,0,5.7,2.879Z" transform="translate(-3.31 -2)" fill="#495662"/>
            <path id="Path_1897" data-name="Path 1897" d="M4.691,3.62A5.287,5.287,0,0,0,3,7.495H8.566Z" transform="translate(-2.999 -2.187)" fill="#495662"/>
            <path id="Path_1898" data-name="Path 1898" d="M15.385,5a.886.886,0,0,0-.848.631l-.872,2.908H3c0,.28,0,.63,0,.909a.85.85,0,0,0,.041.257l1.769,5.308a.885.885,0,0,0,.84.6H12.73a.886.886,0,0,0,.848-.631l2.465-8.216h2.881V5Z" transform="translate(-2.999 -2.346)" fill="#495662"/>
          </g>
        </g>
      </g>
    </g>
  </g>
</svg>
