<svg xmlns="http://www.w3.org/2000/svg" xmlns:xlink="http://www.w3.org/1999/xlink" width="24" height="24" viewBox="0 0 24 24">
  <defs>
    <clipPath id="clip-path">
      <rect id="Rectangle_1664" data-name="Rectangle 1664" width="24" height="24" transform="translate(-1585 -5856)" fill="#fff"/>
    </clipPath>
    <filter id="Path_1071" x="-0.961" y="-2.996" width="25.336" height="25.335" filterUnits="userSpaceOnUse">
      <feOffset dy="1.97" input="SourceAlpha"/>
      <feGaussianBlur stdDeviation="2.954" result="blur"/>
      <feFlood flood-opacity="0.059"/>
      <feComposite operator="in" in2="blur"/>
      <feComposite in="SourceGraphic"/>
    </filter>
  </defs>
  <g id="Mask_Group_134" data-name="Mask Group 134" transform="translate(1585 5856)" clip-path="url(#clip-path)">
    <g id="Previous_booking_history" data-name="Previous booking history" transform="translate(-1757.158 -6015.254)">
      <g transform="matrix(1, 0, 0, 1, 172.16, 159.25)" filter="url(#Path_1071)">
        <path id="Path_1071-2" data-name="Path 1071" d="M7.108,1.536a2.2,2.2,0,0,0,.5-1.162A.43.43,0,0,0,7.549.135.189.189,0,0,0,7.514.091.2.2,0,0,0,7.475.06.423.423,0,0,0,7.236,0,2.2,2.2,0,0,0,6.074.5,10.011,10.011,0,0,0,4.93,1.6l-.251.264-.908-.271,0,0a.2.2,0,0,0,0-.286L3.61,1.142a.2.2,0,0,0-.144-.06.2.2,0,0,0-.144.059l-.245.245-.13-.04a.2.2,0,0,0-.016-.268L2.766.916A.2.2,0,0,0,2.622.857a.2.2,0,0,0-.143.059l-.225.225L1.333.865A.231.231,0,0,0,1.267.855.244.244,0,0,0,1.1.924l-.324.324a.191.191,0,0,0-.057.134.186.186,0,0,0,.1.167L2.753,2.631a.338.338,0,0,1,.047.036l.552.552c-.518.544-.977,1.072-1.336,1.53l-.1.125L.42,4.738H.395a.279.279,0,0,0-.186.077l-.151.151A.188.188,0,0,0,0,5.1a.184.184,0,0,0,.109.17l1.055.5A.246.246,0,0,1,1.2,5.8l.088.087a.64.64,0,0,0-.042.2.266.266,0,0,0,.074.194l0,0h0a.267.267,0,0,0,.194.073.645.645,0,0,0,.2-.04l.089.089a.239.239,0,0,1,.028.04l.5,1.05a.186.186,0,0,0,.168.111h0a.188.188,0,0,0,.133-.056L2.794,7.4a.275.275,0,0,0,.074-.185c0-.009,0-.015,0-.019l-.137-1.5.125-.1c.459-.358.987-.82,1.53-1.336l.553.553a.3.3,0,0,1,.036.047l1.08,1.934a.188.188,0,0,0,.3.044l.326-.326a.247.247,0,0,0,.067-.17.233.233,0,0,0-.009-.064l-.276-.922.225-.225a.2.2,0,0,0,0-.287l-.165-.164a.2.2,0,0,0-.268-.017l-.04-.129.245-.245a.2.2,0,0,0,.059-.144A.2.2,0,0,0,6.464,4L6.3,3.836a.2.2,0,0,0-.288,0h0L5.74,2.93l.268-.255a9.974,9.974,0,0,0,1.1-1.139Z" transform="translate(7.9 3.9)" fill="#495662"/>
      </g>
      <g id="Group_20" data-name="Group 20" transform="translate(176.199 166.857)">
        <path id="Path_1069" data-name="Path 1069" d="M234.943,207.462h-.836v1.672h.836v5.012H223.249v-5.012h.836v-1.672h-.836a1.672,1.672,0,0,0-1.672,1.672v7.518a1.672,1.672,0,0,0,1.672,1.672h5.012v.836h-2.506v1.672h6.683V219.16h-2.506v-.836h5.012a1.672,1.672,0,0,0,1.672-1.672v-7.518a1.672,1.672,0,0,0-1.672-1.672Z" transform="translate(-221.577 -207.462)" fill="#495662"/>
      </g>
    </g>
  </g>
</svg>
