<svg xmlns="http://www.w3.org/2000/svg" xmlns:xlink="http://www.w3.org/1999/xlink" width="24" height="24" viewBox="0 0 24 24">
  <defs>
    <clipPath id="clip-path">
      <rect id="Rectangle_1826" data-name="Rectangle 1826" width="24" height="24" transform="translate(-1521 -5446)" fill="#495662"/>
    </clipPath>
  </defs>
  <g id="Mask_Group_222" data-name="Mask Group 222" transform="translate(1521 5446)" clip-path="url(#clip-path)">
    <g id="baseline-airline_seat_legroom_reduced-24px" transform="translate(-1521 -5446)">
      <path id="Path_2045" data-name="Path 2045" d="M0,0H24V24H0Z" fill="none"/>
      <path id="Path_2046" data-name="Path 2046" d="M19.97,19.2A1.507,1.507,0,0,1,18.5,21H14V18l1-4H9a3.009,3.009,0,0,1-3-3V3h6V9h5a2.006,2.006,0,0,1,2,2l-2,7h1.44a1.539,1.539,0,0,1,1.53,1.2ZM5,12V3H3v9a5,5,0,0,0,5,5h4V15H8A3,3,0,0,1,5,12Z" fill="#495662"/>
    </g>
  </g>
</svg>
