<svg xmlns="http://www.w3.org/2000/svg" xmlns:xlink="http://www.w3.org/1999/xlink" width="24" height="24" viewBox="0 0 24 24">
  <defs>
    <clipPath id="clip-path">
      <rect id="Rectangle_1657" data-name="Rectangle 1657" width="24" height="24" transform="translate(-1649 -5856)" fill="#fff"/>
    </clipPath>
  </defs>
  <g id="Mask_Group_127" data-name="Mask Group 127" transform="translate(1649 5856)" clip-path="url(#clip-path)">
    <g id="Seats" transform="translate(-2390.829 -6166.821)">
      <g id="baseline-airline_seat_recline_normal-24px" transform="translate(743.469 312.461)">
        <path id="Path_765" data-name="Path 765" d="M5.795,4.389a1.848,1.848,0,1,1,2.613,0,1.848,1.848,0,0,1-2.613,0ZM4.327,14.167V5.858H2.481v8.309A4.618,4.618,0,0,0,7.1,18.784h5.539V16.937H7.1a2.766,2.766,0,0,1-2.77-2.77Zm12.927,3.757-4.681-4.681H9.406v-3.4a8.791,8.791,0,0,0,5.078,1.994V9.846a6.236,6.236,0,0,1-4.312-1.883L8.88,6.531a1.981,1.981,0,0,0-.637-.462,2.055,2.055,0,0,0-.886-.212H7.329A2.08,2.08,0,0,0,5.252,7.935v5.309a2.766,2.766,0,0,0,2.769,2.77H12.7l3.231,3.231Z" transform="translate(1.212 0.605)" fill="#495662"/>
        <path id="Path_766" data-name="Path 766" d="M0,0H22.16V22.16H0Z" fill="none"/>
      </g>
    </g>
  </g>
</svg>
