<svg xmlns="http://www.w3.org/2000/svg" xmlns:xlink="http://www.w3.org/1999/xlink" width="24" height="24" viewBox="0 0 24 24">
  <defs>
    <clipPath id="clip-path">
      <rect id="Rectangle_1658" data-name="Rectangle 1658" width="24" height="24" transform="translate(-1649 -5815)" fill="#fff" stroke="#707070" stroke-width="1"/>
    </clipPath>
  </defs>
  <g id="Mask_Group_128" data-name="Mask Group 128" transform="translate(1649 5815)" clip-path="url(#clip-path)">
    <g id="Tags_white_" data-name="Tags (white)" transform="translate(-1645.928 -5815.004)">
      <path id="Path_670" data-name="Path 670" d="M622.232,110.664a2.021,2.021,0,0,0-.491-.935l-2.227-2.076a1.245,1.245,0,0,0-.943-.3l-.434.071-.1.016L617,107.6l-.13.021-.864.139a1.21,1.21,0,0,0-.793.581l-1.245,2.633a1.958,1.958,0,0,0-.152,1.037L615.6,122.38a.938.938,0,0,0,1.072.76l6.765-1.085c.506-.081.663-.526.576-1.027Zm-4.148.663a1.468,1.468,0,1,1,1.217-1.681,1.467,1.467,0,0,1-1.217,1.681Z" transform="translate(-608.51 -103.79)" fill="#495662" opacity="0.52"/>
      <path id="Path_671" data-name="Path 671" d="M611.346,113.5a2.183,2.183,0,0,0-.216-1.118l-1.651-2.834a1.343,1.343,0,0,0-.879-.607l-.469-.063-.107-.014-1.122-.151-.142-.019-.934-.126a1.3,1.3,0,0,0-1,.352l-2.1,2.329a2.114,2.114,0,0,0-.479,1.023l-1.388,11.245a1.01,1.01,0,0,0,.869,1.119l7.315.987c.547.074.848-.336.914-.88Zm-4.484-.607a1.577,1.577,0,1,1,1.171-.307,1.581,1.581,0,0,1-1.171.307Z" transform="translate(-598.213 -104.764)" fill="#495662"/>
    </g>
  </g>
</svg>
