<svg xmlns="http://www.w3.org/2000/svg" xmlns:xlink="http://www.w3.org/1999/xlink" width="24" height="24" viewBox="0 0 24 24">
  <defs>
    <clipPath id="clip-path">
      <rect id="Rectangle_1816" data-name="Rectangle 1816" width="24" height="24" transform="translate(-1713 -5487)" fill="#495662" stroke="#707070" stroke-width="1"/>
    </clipPath>
  </defs>
  <g id="Mask_Group_215" data-name="Mask Group 215" transform="translate(1713 5487)" clip-path="url(#clip-path)">
    <g id="vote-thumbs-up" transform="translate(-1712 -5487)">
      <g id="Frames-24px">
        <rect id="Rectangle_1815" data-name="Rectangle 1815" width="24" height="24" fill="none"/>
      </g>
      <g id="Solid" transform="translate(0 1)">
        <g id="Group_1526" data-name="Group 1526" transform="translate(0 2)">
          <path id="Path_2033" data-name="Path 2033" d="M4.5,8H.9a.9.9,0,0,0-.9.9v9.008a.9.9,0,0,0,.9.9H4.5a.9.9,0,0,0,.9-.9V8.9A.9.9,0,0,0,4.5,8Z" transform="translate(0 -2.595)" fill="#495662"/>
          <path id="Path_2034" data-name="Path 2034" d="M21.3,6.827a.9.9,0,0,0-.692-.323h-5.4V2.9a.9.9,0,0,0-.9-.9H11.6a.9.9,0,0,0-.828.546L8,8.305v8.538l3.268,1.307a.912.912,0,0,0,.335.064h7.206a.9.9,0,0,0,.886-.74l1.8-9.908A.9.9,0,0,0,21.3,6.827Z" transform="translate(-0.794 -2)" fill="#495662"/>
        </g>
      </g>
    </g>
  </g>
</svg>
