<svg xmlns="http://www.w3.org/2000/svg" xmlns:xlink="http://www.w3.org/1999/xlink" width="24" height="24" viewBox="0 0 24 24">
  <defs>
    <clipPath id="clip-path">
      <rect id="Rectangle_1792" data-name="Rectangle 1792" width="24" height="24" transform="translate(-1521 -5528)" fill="#495662" stroke="#707070" stroke-width="1"/>
    </clipPath>
  </defs>
  <g id="Mask_Group_202" data-name="Mask Group 202" transform="translate(1521 5528)" clip-path="url(#clip-path)">
    <g id="user-female" transform="translate(-1521 -5528)">
      <g id="Frames-24px">
        <rect id="Rectangle_1791" data-name="Rectangle 1791" width="24" height="24" fill="none"/>
      </g>
      <g id="Solid" transform="translate(0.681 1.031)">
        <g id="Group_1512" data-name="Group 1512" transform="translate(7 3)">
          <circle id="Ellipse_381" data-name="Ellipse 381" cx="2.633" cy="2.633" r="2.633" transform="translate(1.755)" fill="#495662"/>
          <path id="Path_1996" data-name="Path 1996" d="M15.749,16.685l-1.33-5.227a3.1,3.1,0,0,0-6.052-.048L7.026,16.685a.877.877,0,0,0,.833,1.091s.654.014,1.169.016c.168.5.419,1.286.646,2a.875.875,0,0,0,.836.613h1.755A.877.877,0,0,0,13.1,19.8c.226-.718.478-1.5.647-2,.514,0,1.167-.016,1.167-.016a.879.879,0,0,0,.833-1.091Z" transform="translate(-7 -3.735)" fill="#495662"/>
        </g>
      </g>
    </g>
  </g>
</svg>
