<svg xmlns="http://www.w3.org/2000/svg" xmlns:xlink="http://www.w3.org/1999/xlink" viewBox="0 0 605.49 223"><defs><style>.cls-1,.cls-12,.cls-15,.cls-8,.cls-9{fill:none;}.cls-16,.cls-17,.cls-2{isolation:isolate;}.cls-3,.cls-7{fill:#2990e6;}.cls-4,.cls-5,.cls-6,.cls-7,.cls-8{mix-blend-mode:multiply;}.cls-4{fill:url(#linear-gradient);}.cls-5{fill:url(#linear-gradient-2);}.cls-6{fill:url(#linear-gradient-3);}.cls-8{stroke:#2990e6;}.cls-12,.cls-15,.cls-8,.cls-9{stroke-miterlimit:10;}.cls-11,.cls-9{font-size:12px;}.cls-9{stroke:#fff;stroke-width:0.25px;}.cls-11,.cls-16,.cls-9{font-family:Roboto-Medium, Roboto;font-weight:500;}.cls-10{letter-spacing:-0.01em;}.cls-11{opacity:0.58;fill:#fff;}.cls-12,.cls-15{stroke:#495662;}.cls-13{clip-path:url(#clip-path);}.cls-14,.cls-16,.cls-17{fill:#495662;}.cls-15{stroke-width:0.5px;}.cls-16{font-size:11px;}.cls-17{font-size:8px;font-family:Roboto-Regular, Roboto;}</style><linearGradient id="linear-gradient" x1="17.31" y1="3441.95" x2="67.67" y2="3441.95" gradientTransform="matrix(1, 0, 0, -1, 0, 3532.36)" gradientUnits="userSpaceOnUse"><stop offset="0" stop-color="#2990e6"/><stop offset="1" stop-color="#fff"/></linearGradient><linearGradient id="linear-gradient-2" x1="172.96" y1="3411.84" x2="200.82" y2="3411.84" gradientTransform="matrix(-0.24, -0.97, -0.97, 0.24, 3525.42, -519.98)" xlink:href="#linear-gradient"/><linearGradient id="linear-gradient-3" x1="134.68" y1="3008.31" x2="162.54" y2="3008.31" gradientTransform="matrix(-0.24, -0.97, -0.97, 0.24, 3525.42, -519.98)" xlink:href="#linear-gradient"/><clipPath id="clip-path"><rect class="cls-1" x="358.27" y="92.91" width="24" height="24"/></clipPath></defs><title>AltAir Banners - Button</title><g class="cls-2"><g id="Layer_2" data-name="Layer 2"><g id="Layer_1-2" data-name="Layer 1"><path id="Path_2055" data-name="Path 2055" class="cls-3" d="M605.49,9V0H595.06V3H309.71V0H299.27V3H10.44V0H0V9H3.48v98H0v9H3.48v98H0v9H10.44v-3H299.27v3h10.44v-3H595.06v3h10.43v-9h-4.64V116h4.64v-9h-4.64V9Zm-7,98H595v9h3.48v98H595v4H309.71v-4H299.27v4H10.44v-4H5.8V116h4.64v-9H5.8V9h4.64V5H299.27V9h10.44V5H595.06V9h3.48Z"/><circle class="cls-4" cx="42.49" cy="90.41" r="25.18"/><circle class="cls-5" cx="170.54" cy="128.41" r="13.93"/><circle class="cls-6" cx="571.27" cy="67.41" r="13.93"/><rect id="Button" class="cls-7" x="42.49" y="92.41" width="115" height="36" rx="6"/><rect id="Input" class="cls-7" x="170.54" y="86.41" width="173" height="42" rx="6"/><rect id="Button-2" class="cls-7" x="355.85" y="69.41" width="216" height="59" rx="6"/><rect id="Button-2-2" data-name="Button" class="cls-8" x="36.91" y="86.91" width="115" height="36" rx="6"/><rect id="Input-2" data-name="Input" class="cls-8" x="164.96" y="80.91" width="173" height="42" rx="6"/><rect id="Button-2-3" data-name="Button-2" class="cls-8" x="350.27" y="63.91" width="216" height="59" rx="6"/><text class="cls-9" transform="translate(71.97 111.5)">But<tspan class="cls-10" x="18.23" y="0">t</tspan><tspan x="22.04" y="0">ons</tspan></text><text class="cls-11" transform="translate(71.3 111.41)">But<tspan class="cls-10" x="18.23" y="0">t</tspan><tspan x="22.04" y="0">ons</tspan></text><line class="cls-12" x1="42.49" y1="52.71" x2="42.49" y2="151.45"/><line class="cls-12" x1="157.49" y1="52.71" x2="157.49" y2="151.45"/><line class="cls-12" x1="170.54" y1="52.71" x2="170.54" y2="151.45"/><line class="cls-12" x1="343.29" y1="52.71" x2="343.29" y2="151.45"/><line class="cls-12" x1="356.06" y1="52.71" x2="356.06" y2="151.45"/><line class="cls-12" x1="571.85" y1="52.71" x2="571.85" y2="151.45"/><line class="cls-12" x1="22.77" y1="69.41" x2="586.69" y2="69.41"/><line class="cls-12" x1="22.77" y1="128.41" x2="586.69" y2="128.41"/><circle class="cls-12" cx="356.06" cy="69.37" r="21.04"/><g class="cls-13"><g id="Curser"><g class="cls-13"><g id="Mask_Group_156" data-name="Mask Group 156"><g id="cursor-arrow-2"><g id="Frames-24px"><rect id="Rectangle_1693" data-name="Rectangle 1693" class="cls-1" x="358.27" y="92.91" width="24" height="24"/></g><g id="Solid"><path id="Path_1914" data-name="Path 1914" class="cls-14" d="M363.68,98.35l5.48,14.09,1.56-7,7-1.57Z"/></g></g></g></g></g></g><path class="cls-15" d="M203,91s-8.94,6.56-20.38-1.16S160,92.12,160,92.12"/><path class="cls-15" d="M203,94.34s-8.94,6.55-20.38-1.17S160,95.46,160,95.46"/><path class="cls-15" d="M203,97.68s-8.94,6.55-20.38-1.16S160,98.86,160,98.86"/><path class="cls-15" d="M203,101s-8.94,6.55-20.38-1.16S160,102.15,160,102.15"/><path class="cls-15" d="M203,104.36s-8.94,6.56-20.38-1.16S160,105.49,160,105.49"/><line class="cls-15" x1="321.32" y1="86.9" x2="273.75" y2="86.9"/><line class="cls-15" x1="434" y1="86.41" x2="386.43" y2="86.41"/><rect class="cls-14" x="168.61" y="84.97" width="3.87" height="3.87"/><rect class="cls-14" x="259.32" y="84.5" width="3.87" height="3.87"/><rect class="cls-14" x="40.56" y="90.47" width="3.87" height="3.87"/><rect class="cls-14" x="40.56" y="124.54" width="3.87" height="3.87"/><rect class="cls-14" x="168.61" y="124.54" width="3.87" height="3.87"/><rect class="cls-14" x="341.35" y="124.54" width="3.87" height="3.87"/><rect class="cls-14" x="341.35" y="84.47" width="3.87" height="3.87"/><rect class="cls-14" x="354.13" y="124.54" width="3.87" height="3.87"/><rect class="cls-14" x="354.13" y="67.43" width="3.87" height="3.87"/><rect class="cls-14" x="569.91" y="67.43" width="3.87" height="3.87"/><rect class="cls-14" x="465.28" y="67.43" width="3.87" height="3.87"/><rect class="cls-14" x="465.28" y="126.47" width="3.87" height="3.87"/><rect class="cls-14" x="259.32" y="126.47" width="3.87" height="3.87"/><rect class="cls-14" x="97.62" y="126.47" width="3.87" height="3.87"/><rect class="cls-14" x="97.62" y="90.01" width="3.87" height="3.87"/><rect class="cls-14" x="569.91" y="126.47" width="3.87" height="3.87"/><rect class="cls-14" x="154.68" y="126.47" width="3.87" height="3.87"/><rect class="cls-14" x="154.68" y="90.01" width="3.87" height="3.87"/><line class="cls-15" x1="261.25" y1="86.41" x2="172.48" y2="86.41"/><g id="Small" class="cls-2"><text class="cls-16" transform="translate(87.08 141.23)">Small</text></g><g id="H_36px" data-name="H 36px" class="cls-2"><text class="cls-17" transform="translate(87.66 148.67)">H 36px</text></g><g id="Medium" class="cls-2"><text class="cls-16" transform="translate(243.76 141.23)">Medium</text></g><g id="H_42px" data-name="H 42px" class="cls-2"><text class="cls-17" transform="translate(243.95 148.12)">H 42px</text></g><g id="Large" class="cls-2"><text class="cls-16" transform="translate(454.65 139.55)">Large</text></g><g id="H_59px" data-name="H 59px" class="cls-2"><text class="cls-17" transform="translate(454.65 148.12)">H 59px</text></g></g></g></g></svg>