<svg xmlns="http://www.w3.org/2000/svg" xmlns:xlink="http://www.w3.org/1999/xlink" viewBox="0 0 605.49 223"><defs><style>.cls-1{isolation:isolate;}.cls-12,.cls-2,.cls-7{fill:#2990e6;}.cls-13,.cls-3,.cls-5,.cls-8,.cls-9{fill:none;stroke:#495662;stroke-miterlimit:10;}.cls-3{stroke-width:0.5px;}.cls-10,.cls-11,.cls-14,.cls-4{mix-blend-mode:color-burn;}.cls-4{fill:url(#linear-gradient);}.cls-5{stroke-width:0.75px;}.cls-15,.cls-6{fill:#495662;}.cls-7,.cls-8{font-size:69.04px;}.cls-12,.cls-13,.cls-15,.cls-7,.cls-8{font-family:Roboto-Medium, Roboto;font-weight:500;}.cls-10{fill:url(#linear-gradient-2);}.cls-11{fill:url(#linear-gradient-3);}.cls-12,.cls-13{font-size:43.05px;}.cls-14{fill:url(#linear-gradient-4);}.cls-15{font-size:12px;}</style><linearGradient id="linear-gradient" x1="176.41" y1="55.62" x2="226.76" y2="55.62" gradientUnits="userSpaceOnUse"><stop offset="0" stop-color="#2990e6"/><stop offset="1" stop-color="#fff"/></linearGradient><linearGradient id="linear-gradient-2" x1="259.19" y1="135.9" x2="305.93" y2="135.9" xlink:href="#linear-gradient"/><linearGradient id="linear-gradient-3" x1="320.56" y1="96.5" x2="351.96" y2="96.5" xlink:href="#linear-gradient"/><linearGradient id="linear-gradient-4" x1="372.18" y1="146.56" x2="401.32" y2="146.56" xlink:href="#linear-gradient"/></defs><title>Asset 2</title><g class="cls-1"><g id="Layer_2" data-name="Layer 2"><g id="Layer_1-2" data-name="Layer 1"><path id="Path_2055" data-name="Path 2055" class="cls-2" d="M605.49,9V0H595.06V3H309.71V0H299.27V3H10.44V0H0V9H3.48v98H0v9H3.48v98H0v9H10.44v-3H299.27v3h10.44v-3H595.06v3h10.43v-9h-4.64V116h4.64v-9h-4.64V9Zm-7,98h-3.48v9h3.48v98h-3.48v4H309.71v-4H299.27v4H10.44v-4H5.8V116h4.64v-9H5.8V9h4.64V5H299.27V9h10.44V5H595.06V9h3.48Z"/><path class="cls-3" d="M216.31,142s-8.95,6.56-20.38-1.16-22.65,2.29-22.65,2.29"/><path class="cls-3" d="M216.31,145.32s-8.95,6.56-20.38-1.16-22.65,2.29-22.65,2.29"/><circle class="cls-4" cx="201.59" cy="55.62" r="25.18"/><path class="cls-5" d="M188.63,148.3A46.34,46.34,0,0,1,235,102h35.3c25.59,0,48.34-20.74,48.34-46.34"/><rect class="cls-6" x="184.11" y="146.37" width="9.06" height="9.06"/><rect class="cls-6" x="194.79" y="48.5" width="9.06" height="9.06"/><rect class="cls-6" x="301.34" y="48.5" width="9.06" height="9.06"/><rect class="cls-6" x="301.34" y="155.15" width="9.06" height="9.06"/><rect class="cls-6" x="193.18" y="155.15" width="9.06" height="9.06"/><rect class="cls-6" x="194.18" y="107.18" width="9.06" height="9.06"/><rect class="cls-6" x="301.44" y="106.77" width="9.06" height="9.06"/><rect class="cls-6" x="314.08" y="51.09" width="9.06" height="9.06"/><path class="cls-6" d="M231.08,149.6l.87-.87.72-.71,1.82-1.83-.78-5.86c-1.93.61-15.1-6.37-15.1-6.37l-1.4,0,7.22,7.22-.87.87-7.22-7.21,0,1.39s7,13.17,6.37,15.1l5.86.78,2.54-2.54Z"/><rect class="cls-6" x="229.12" y="149.21" width="8.42" height="3.54" transform="translate(-38.42 209.21) rotate(-45)"/><text class="cls-7" transform="translate(244.15 129.96)">i</text><text class="cls-8" transform="translate(240.57 131.96)">i</text><rect class="cls-9" x="199.32" y="53.13" width="106.55" height="106.55"/><rect class="cls-9" x="199.32" y="53.13" width="70.88" height="106.55"/><path class="cls-10" d="M305.93,112.53a46.74,46.74,0,0,0-46.74,46.74h46.74"/><path class="cls-3" d="M345.44,150.35s-5.58,4.09-12.71-.72-14.12,1.43-14.12,1.43"/><path class="cls-3" d="M345.44,152.44s-5.58,4.08-12.71-.73-14.12,1.43-14.12,1.43"/><circle class="cls-11" cx="336.26" cy="96.5" r="15.7"/><path class="cls-5" d="M328.19,154.29a28.88,28.88,0,0,1,28.89-28.89h22c16,0,30.14-12.94,30.14-28.9"/><rect class="cls-6" x="325.36" y="153.08" width="5.65" height="5.65"/><rect class="cls-6" x="332.03" y="92.06" width="5.65" height="5.65"/><rect class="cls-6" x="398.46" y="92.06" width="5.65" height="5.65"/><rect class="cls-6" x="398.46" y="158.56" width="5.65" height="5.65"/><rect class="cls-6" x="331.02" y="158.56" width="5.65" height="5.65"/><rect class="cls-6" x="331.65" y="128.65" width="5.65" height="5.65"/><rect class="cls-6" x="398.52" y="128.39" width="5.65" height="5.65"/><rect class="cls-6" x="406.41" y="93.68" width="5.65" height="5.65"/><path class="cls-6" d="M354.65,155.1l.55-.54.44-.45,1.14-1.13-.49-3.66c-1.2.38-9.41-4-9.41-4l-.87,0,4.5,4.5-.55.54-4.5-4.5,0,.87s4.35,8.22,4,9.42l3.65.49,1.58-1.59Z"/><rect class="cls-6" x="353.43" y="154.86" width="5.25" height="2.21" transform="translate(-5.99 297.45) rotate(-45)"/><text class="cls-12" transform="translate(362.8 142.86)">i</text><text class="cls-13" transform="translate(360.57 144.1)">i</text><rect class="cls-9" x="334.85" y="94.95" width="66.44" height="66.44"/><rect class="cls-9" x="334.85" y="94.95" width="44.19" height="66.44"/><path class="cls-14" d="M401.32,132a29.14,29.14,0,0,0-29.14,29.14h29.14"/><text class="cls-15" transform="translate(199.32 180.68)">Large icons 24x24</text><text class="cls-15" transform="translate(320.56 180.68)">Small icons 16x16</text></g></g></g></svg>