<?xml version="1.0" encoding="utf-8"?>
<!-- Generator: Adobe Illustrator 23.0.1, SVG Export Plug-In . SVG Version: 6.00 Build 0)  -->
<svg version="1.1" id="Layer_1" xmlns="http://www.w3.org/2000/svg" xmlns:xlink="http://www.w3.org/1999/xlink" x="0px" y="0px"
	 viewBox="0 0 245.1 153.5" style="enable-background:new 0 0 245.1 153.5;" xml:space="preserve">
<style type="text/css">
	.st0{fill:none;stroke:#495662;stroke-width:0.5;stroke-miterlimit:10;}
	.st1{fill:url(#SVGID_1_);}
	.st2{fill:none;stroke:#495662;stroke-width:0.75;stroke-miterlimit:10;}
	.st3{fill:#495662;}
	.st4{fill:#2990E6;}
	.st5{font-family:'Roboto-Regular';}
	.st6{font-size:69.04px;}
	.st7{fill:none;stroke:#495662;stroke-miterlimit:10;}
	.st8{fill:url(#SVGID_2_);}
	.st9{fill:url(#SVGID_3_);}
	.st10{font-size:43.05px;}
	.st11{fill:url(#SVGID_4_);}
	.st12{font-size:12px;}
</style>
<title>Asset 2</title>
<g>
	<g>
		<g id="Layer_1-2">
			<path class="st0" d="M43.2,111.6c0,0-8.9,6.6-20.4-1.2s-22.6,2.3-22.6,2.3"/>
			<path class="st0" d="M43.2,114.9c0,0-8.9,6.6-20.4-1.2S0.2,116,0.2,116"/>
			
				<linearGradient id="SVGID_1_" gradientUnits="userSpaceOnUse" x1="3.2964" y1="-332.3091" x2="53.6564" y2="-332.3091" gradientTransform="matrix(1 0 0 -1 0 -307.1291)">
				<stop  offset="0" style="stop-color:#2990E6"/>
				<stop  offset="1" style="stop-color:#FFFFFF"/>
			</linearGradient>
			<circle class="st1" cx="28.5" cy="25.2" r="25.2"/>
			<path class="st2" d="M15.5,117.9c0-25.6,20.8-46.3,46.4-46.3h35.3c25.6,0,48.3-20.7,48.3-46.3"/>
			<rect x="11" y="115.9" class="st3" width="9.1" height="9.1"/>
			<rect x="21.7" y="18.1" class="st3" width="9.1" height="9.1"/>
			<rect x="128.2" y="18.1" class="st3" width="9.1" height="9.1"/>
			<rect x="128.2" y="124.7" class="st3" width="9.1" height="9.1"/>
			<rect x="20.1" y="124.7" class="st3" width="9.1" height="9.1"/>
			<rect x="21.1" y="76.7" class="st3" width="9.1" height="9.1"/>
			<rect x="128.3" y="76.3" class="st3" width="9.1" height="9.1"/>
			<rect x="141" y="20.7" class="st3" width="9.1" height="9.1"/>
			<path class="st3" d="M58,119.2l0.9-0.9l0.7-0.7l1.8-1.8l-0.8-5.9c-1.9,0.6-15.1-6.4-15.1-6.4h-1.4l7.2,7.2l-0.9,0.9l-7.2-7.2v1.4
				c0,0,7,13.2,6.4,15.1l5.9,0.8L58,119.2L58,119.2z"/>
			
				<rect x="56" y="118.8" transform="matrix(0.7071 -0.7071 0.7071 0.7071 -67.598 77.8835)" class="st3" width="8.4" height="3.5"/>
			<text transform="matrix(1 0 0 1 71.0364 99.52)" class="st4 st5 st6">i</text>
			<text transform="matrix(1 0 0 1 67.4564 101.52)" class="st7 st5 st6">i</text>
			<rect x="26.2" y="22.7" class="st7" width="106.5" height="106.6"/>
			<rect x="26.2" y="22.7" class="st7" width="70.9" height="106.6"/>
			
				<linearGradient id="SVGID_2_" gradientUnits="userSpaceOnUse" x1="86.0764" y1="-412.5891" x2="132.8164" y2="-412.5891" gradientTransform="matrix(1 0 0 -1 0 -307.1291)">
				<stop  offset="0" style="stop-color:#2990E6"/>
				<stop  offset="1" style="stop-color:#FFFFFF"/>
			</linearGradient>
			<path class="st8" d="M132.8,82.1c-25.8,0-46.7,20.9-46.7,46.7h46.7"/>
			<path class="st0" d="M172.3,119.9c0,0-5.6,4.1-12.7-0.7s-14.1,1.4-14.1,1.4"/>
			<path class="st0" d="M172.3,122c0,0-5.6,4.1-12.7-0.7s-14.1,1.4-14.1,1.4"/>
			
				<linearGradient id="SVGID_3_" gradientUnits="userSpaceOnUse" x1="147.4464" y1="-373.1891" x2="178.8465" y2="-373.1891" gradientTransform="matrix(1 0 0 -1 0 -307.1291)">
				<stop  offset="0" style="stop-color:#2990E6"/>
				<stop  offset="1" style="stop-color:#FFFFFF"/>
			</linearGradient>
			<circle class="st9" cx="163.1" cy="66.1" r="15.7"/>
			<path class="st2" d="M155.1,123.8c0-15.9,12.9-28.9,28.9-28.9c0,0,0,0,0,0h22c16,0,30.1-12.9,30.1-28.9"/>
			<rect x="152.2" y="122.6" class="st3" width="5.6" height="5.6"/>
			<rect x="158.9" y="61.6" class="st3" width="5.6" height="5.7"/>
			<rect x="225.3" y="61.6" class="st3" width="5.6" height="5.7"/>
			<rect x="225.3" y="128.1" class="st3" width="5.6" height="5.6"/>
			<rect x="157.9" y="128.1" class="st3" width="5.6" height="5.6"/>
			<rect x="158.5" y="98.2" class="st3" width="5.6" height="5.6"/>
			<rect x="225.4" y="97.9" class="st3" width="5.6" height="5.6"/>
			<rect x="233.3" y="63.2" class="st3" width="5.6" height="5.7"/>
			<path class="st3" d="M181.5,124.7l0.5-0.5l0.4-0.4l1.1-1.1l-0.5-3.7c-1.2,0.4-9.4-4-9.4-4h-0.9l4.5,4.5l-0.5,0.5l-4.5-4.5v0.9
				c0,0,4.4,8.2,4,9.4l3.6,0.5L181.5,124.7L181.5,124.7z"/>
			
				<rect x="180.3" y="124.4" transform="matrix(0.7071 -0.7071 0.7071 0.7071 -35.175 166.1301)" class="st3" width="5.2" height="2.2"/>
			<text transform="matrix(1 0 0 1 189.6864 112.42)" class="st4 st5 st10">i</text>
			<text transform="matrix(1 0 0 1 187.4564 113.66)" class="st7 st5 st10">i</text>
			<rect x="161.7" y="64.5" class="st7" width="66.4" height="66.4"/>
			<rect x="161.7" y="64.5" class="st7" width="44.2" height="66.4"/>
			
				<linearGradient id="SVGID_4_" gradientUnits="userSpaceOnUse" x1="199.0664" y1="-423.2591" x2="228.2064" y2="-423.2591" gradientTransform="matrix(1 0 0 -1 0 -307.1291)">
				<stop  offset="0" style="stop-color:#2990E6"/>
				<stop  offset="1" style="stop-color:#FFFFFF"/>
			</linearGradient>
			<path class="st11" d="M228.2,101.6c-16.1,0-29.1,13-29.1,29.1v0h29.1"/>
			<text transform="matrix(1 0 0 1 26.2064 150.24)" class="st3 st5 st12">Large icons 24x24</text>
			<text transform="matrix(1 0 0 1 147.4464 150.24)" class="st3 st5 st12">Small icons 16x16</text>
		</g>
	</g>
</g>
</svg>
