<?xml version="1.0" encoding="utf-8"?>
<!-- Generator: Adobe Illustrator 23.0.1, SVG Export Plug-In . SVG Version: 6.00 Build 0)  -->
<svg version="1.1" id="Layer_1" xmlns="http://www.w3.org/2000/svg" xmlns:xlink="http://www.w3.org/1999/xlink" x="0px" y="0px"
	 viewBox="0 0 605.5 241.1" style="enable-background:new 0 0 605.5 241.1;" xml:space="preserve">
<style type="text/css">
	.st0{fill:#2990E6;}
	.st1{opacity:0.46;}
	.st2{fill:#6DCFF6;}
	.st3{fill:#BE1E2D;}
	.st4{fill:#005AA9;}
	.st5{fill:#005BAA;}
	.st6{fill:none;stroke:#005BAA;stroke-width:0.5;stroke-miterlimit:10;}
	.st7{fill:none;stroke:#2990E6;stroke-width:0.5;stroke-miterlimit:10;}
	.st8{opacity:0.38;fill:#2990E6;enable-background:new    ;}
	.st9{fill:none;stroke:#2990E6;stroke-width:0.1;stroke-miterlimit:10;}
	.st10{fill:none;stroke:#2990E6;stroke-miterlimit:10;}
	.st11{fill:#495662;}
	.st12{fill:none;stroke:#495662;stroke-width:0.5;stroke-miterlimit:10;}
	.st13{fill:url(#SVGID_1_);}
	.st14{fill:url(#SVGID_2_);}
	.st15{clip-path:url(#SVGID_4_);}
	.st16{clip-path:url(#SVGID_6_);}
	.st17{fill:none;stroke:#495662;stroke-width:0.25;stroke-miterlimit:10;}
	.st18{font-family:'Roboto-Regular';}
	.st19{font-size:3.92px;}
	.st20{font-size:7.99px;}
</style>
<title>Asset 4</title>
<g>
	<g>
		<g id="Layer_1-2">
			<path id="Path_2055" class="st0" d="M605.5,9V0h-10.4v3H309.7V0h-10.4v3H10.4V0H0v9h3.5v98H0v9h3.5v98H0v9h10.4v-3h288.8v3h10.4
				v-3h285.4v3h10.4v-9h-4.6v-98h4.6v-9h-4.6V9H605.5z M598.5,107H595v9h3.5v98H595v4H309.7v-4h-10.4v4H10.4v-4H5.8v-98h4.6v-9H5.8
				V9h4.6V5h288.8v4h10.4V5h285.4v4h3.5L598.5,107z"/>
			<g class="st1">
				<path class="st2" d="M411.4,116.5c-0.2-0.9-0.6-1.7-1.2-2.3l-5.6-5.2c-0.6-0.6-1.5-0.8-2.4-0.8l-1.1,0.2h-0.2l-2.6,0.4l-0.3,0.1
					l-2.2,0.3c-0.8,0.2-1.6,0.7-2,1.4l-3.1,6.6c-0.4,0.8-0.5,1.7-0.4,2.6l4.5,25.9c0.2,1.3,1.4,2.1,2.7,1.9l16.9-2.7
					c1.3-0.2,1.7-1.3,1.4-2.6L411.4,116.5z M401,118.2c-2,0.3-3.9-1-4.2-3c-0.3-2,1-3.9,3-4.2s3.9,1,4.2,3c0,0,0,0,0,0
					C404.3,115.9,403,117.8,401,118.2z"/>
				<path class="st3" d="M409.9,121.2c0.1-1-0.1-1.9-0.5-2.8l-4.1-7.1c-0.5-0.8-1.3-1.3-2.2-1.5l-1.2-0.2h-0.3l-2.8-0.4h-0.4
					l-2.3-0.3c-0.9-0.1-1.8,0.2-2.5,0.9l-5.3,5.8c-0.6,0.7-1,1.6-1.2,2.6l-3.5,28.1c-0.2,1.4,0.8,2.6,2.2,2.8l18.3,2.5
					c1.4,0.2,2.1-0.8,2.3-2.2L409.9,121.2z M398.7,119.7c-2.2-0.3-3.7-2.3-3.5-4.5c0.3-2.2,2.3-3.7,4.5-3.5c2.2,0.3,3.7,2.3,3.5,4.5
					c0,0,0,0.1,0,0.1C402.8,118.4,400.8,119.9,398.7,119.7z"/>
				<path class="st4" d="M197.2,71.3c0.1-0.6,0.6-0.9,1.2-0.9h1.5c0.6,0,1.1,0.3,1.2,0.9l10.9,29.3c0.2,0.8-0.1,1.3-0.9,1.3h-1
					c-0.6,0.1-1.1-0.3-1.3-0.9l-3.4-9.2h-12.7l-3.3,9.2c-0.1,0.6-0.7,1-1.3,0.9h-0.9c-0.9,0-1.2-0.5-0.9-1.3L197.2,71.3z
					 M204.5,89.2l-4.2-11.4c-0.5-1.5-1.2-4.1-1.2-4.1h-0.1c0,0-0.7,2.7-1.2,4.1l-4.2,11.4L204.5,89.2z"/>
				<path class="st4" d="M217.2,71.5c-0.1-0.5,0.3-1,0.9-1.1c0.1,0,0.1,0,0.2,0h0.9c0.6,0,1,0.4,1.1,0.9c0,0.1,0,0.1,0,0.2v27.7
					h13.5c0.5-0.1,1,0.3,1.1,0.9c0,0.1,0,0.2,0,0.3v0.5c0.1,0.5-0.3,1-0.9,1.1c-0.1,0-0.2,0-0.3,0h-15.5c-0.6,0-1-0.4-1.1-0.9
					c0-0.1,0-0.1,0-0.2V71.5z"/>
				<path class="st5" d="M242.4,73.2h-10.2c-0.5,0.1-1-0.3-1.1-0.9c0-0.1,0-0.2,0-0.3v-0.5c-0.1-0.5,0.3-1,0.9-1.1
					c0.1,0,0.2,0,0.3,0h23.5c0.5-0.1,1,0.3,1.1,0.9c0,0.1,0,0.2,0,0.3v0.5c0.1,0.5-0.3,1-0.9,1.1c-0.1,0-0.2,0-0.3,0h-10.2v27.7
					c0.1,0.5-0.3,1-0.9,1.1c-0.1,0-0.1,0-0.2,0h-0.9c-0.5,0.1-1-0.3-1.1-0.9c0-0.1,0-0.2,0-0.3L242.4,73.2z"/>
				<path class="st4" d="M257,75.7c-0.3-0.5-0.1-1.1,0.4-1.4c0.1,0,0.1-0.1,0.2-0.1l14.6-5.4c0.5-0.3,1.1-0.1,1.4,0.4
					c0,0.1,0.1,0.2,0.1,0.2l0.2,0.5c0.3,0.5,0.1,1.1-0.4,1.4c-0.1,0-0.2,0.1-0.3,0.1l-12.7,4.7l4,10.8l10.2-3.8
					c0.5-0.3,1.1-0.1,1.4,0.4c0,0.1,0.1,0.1,0.1,0.2l0.2,0.6c0.3,0.5,0.1,1.1-0.4,1.4c-0.1,0-0.2,0.1-0.2,0.1l-10.2,3.8l4.1,11
					l13.5-5c0.5-0.3,1.1-0.1,1.4,0.4c0,0.1,0.1,0.2,0.1,0.2l0.2,0.5c0.2,0.5,0,1.1-0.5,1.3c-0.1,0-0.1,0-0.2,0.1l-15.3,5.7
					c-0.5,0.2-1.1,0-1.3-0.5c0-0.1-0.1-0.1-0.1-0.2L257,75.7z"/>
				<path class="st4" d="M286.3,71.5c-0.1-0.5,0.3-1,0.9-1.1c0.1,0,0.1,0,0.2,0h8.5c3,0,4.5,0.3,5.8,0.9c3,1.4,4.9,4.6,4.7,7.9
					c0,4.3-2.4,7.7-6,8.7V88c0.3,0.4,0.6,0.8,0.8,1.3l6.1,11.4c0.4,0.8,0.1,1.3-0.8,1.3h-1.1c-0.5,0-1.1-0.3-1.3-0.8l-6.7-12.5h-8
					v12.2c0.1,0.5-0.3,1-0.9,1.1c-0.1,0-0.1,0-0.2,0h-0.9c-0.6,0-1-0.4-1.1-0.9c0-0.1,0-0.1,0-0.2V71.5z M296.9,85.9
					c3.8,0,6.2-2.7,6.2-6.6c0.1-2.3-1.2-4.5-3.3-5.5c-1.3-0.5-2.7-0.7-4.1-0.6h-6.3v12.7H296.9z"/>
				<path class="st4" d="M313.6,71.5c-0.1-0.5,0.3-1,0.9-1.1c0.1,0,0.1,0,0.2,0h1.1c0.5,0,1.1,0.3,1.3,0.7l15.6,22
					c1.1,1.6,2.6,4.3,2.6,4.3h0.1c0,0-0.3-2.6-0.3-4.3V71.5c-0.1-0.5,0.3-1,0.9-1.1c0.1,0,0.2,0,0.3,0h0.9c0.6,0,1,0.4,1.1,0.9
					c0,0.1,0,0.1,0,0.2v29.3c0.1,0.5-0.3,1-0.9,1.1c-0.1,0-0.1,0-0.2,0h-1.1c-0.5,0-1-0.2-1.3-0.7l-15.7-22
					c-1.1-1.6-2.6-4.3-2.6-4.3h-0.1c0,0,0.3,2.6,0.3,4.3v21.6c0.1,0.5-0.3,1-0.9,1.1c-0.1,0-0.1,0-0.2,0h-0.9c-0.6,0-1-0.4-1.1-0.9
					c0-0.1,0-0.1,0-0.2L313.6,71.5z"/>
				<path class="st4" d="M354.4,71.3c0.1-0.6,0.6-0.9,1.2-0.9h1.5c0.6,0,1.1,0.3,1.2,0.9l10.9,29.3c0.2,0.8-0.1,1.3-0.9,1.3h-1
					c-0.6,0.1-1.1-0.3-1.3-0.9l-3.4-9.2H350l-3.3,9.2c-0.1,0.6-0.7,1-1.3,0.9h-0.9c-0.9,0-1.2-0.5-0.9-1.3L354.4,71.3z M361.8,89.2
					l-4.2-11.4c-0.5-1.5-1.2-4.1-1.2-4.1h-0.1c0,0-0.7,2.7-1.2,4.1l-4.2,11.4L361.8,89.2z"/>
				<path class="st4" d="M378.7,73.2h-10.2c-0.5,0.1-1-0.3-1.1-0.9c0-0.1,0-0.2,0-0.3v-0.5c-0.1-0.5,0.3-1,0.9-1.1
					c0.1,0,0.2,0,0.3,0H392c0.5-0.1,1,0.3,1.1,0.9c0,0.1,0,0.2,0,0.3v0.5c0.1,0.5-0.3,1-0.9,1.1c-0.1,0-0.2,0-0.3,0h-10.2v27.7
					c0.1,0.5-0.3,1-0.9,1.1c-0.1,0-0.1,0-0.2,0h-0.9c-0.5,0.1-1-0.3-1.1-0.9c0-0.1,0-0.2,0-0.3L378.7,73.2z"/>
				<path class="st4" d="M397.8,71.5c-0.1-0.5,0.3-1,0.9-1.1c0.1,0,0.1,0,0.2,0h0.9c0.6,0,1,0.4,1.1,0.9c0,0.1,0,0.1,0,0.2V112
					c0.1,0.5-0.3,1-0.9,1.1c-0.1,0-0.1,0-0.2,0h-0.9c-0.6,0-1-0.4-1.1-0.9c0-0.1,0-0.1,0-0.2V71.5z"/>
				<path class="st4" d="M406.1,71.7c-0.3-0.8,0-1.3,0.9-1.3h1c0.6-0.1,1.1,0.3,1.3,0.9l8.4,23.1c0.6,1.6,1.2,4.1,1.2,4.1h0.1
					c0,0,0.7-2.5,1.2-4.1l8.5-23.1c0.1-0.6,0.6-0.9,1.2-0.9h1.1c0.8,0,1.1,0.5,0.9,1.3L421,101.1c-0.1,0.6-0.7,0.9-1.3,0.9h-1.5
					c-0.6,0-1.1-0.3-1.2-0.9L406.1,71.7z"/>
				<path class="st4" d="M437.1,71.5c-0.1-0.5,0.3-1,0.9-1.1c0.1,0,0.1,0,0.2,0h15.6c0.5-0.1,1,0.3,1.1,0.9c0,0.1,0,0.2,0,0.3v0.5
					c0.1,0.5-0.3,1-0.9,1.1c-0.1,0-0.2,0-0.3,0h-13.6v11.5H451c0.5-0.1,1,0.3,1.1,0.9c0,0.1,0,0.1,0,0.2v0.6c0.1,0.5-0.3,1-0.9,1.1
					c-0.1,0-0.2,0-0.3,0h-10.9v11.7h14.4c0.5-0.1,1.1,0.3,1.1,0.9c0,0.1,0,0.2,0,0.3v0.5c0.1,0.5-0.3,1-0.9,1.1c-0.1,0-0.2,0-0.3,0
					h-16.4c-0.6,0-1-0.4-1.1-0.9c0-0.1,0-0.1,0-0.2L437.1,71.5z"/>
				<path class="st4" d="M197.1,114c0.1-0.6,0.6-0.9,1.2-0.9h1.5c0.6,0,1.1,0.3,1.2,0.9l10.9,29.4c0.2,0.8-0.1,1.3-0.9,1.3h-1
					c-0.6,0.1-1.1-0.3-1.3-0.9l-3.4-9.2h-12.6l-3.3,9.2c-0.1,0.6-0.7,1-1.2,0.9h-0.9c-0.9,0-1.2-0.5-0.9-1.3L197.1,114z
					 M204.5,131.9l-4.2-11.4c-0.5-1.5-1.2-4.1-1.2-4.1h-0.1c0,0-0.7,2.7-1.2,4.1l-4.2,11.4H204.5z"/>
				<path class="st4" d="M229.1,114.2c-0.1-0.5,0.3-1,0.9-1.1c0.1,0,0.1,0,0.2,0h8.5c2-0.1,3.9,0.2,5.8,0.9c3,1.5,4.8,4.6,4.7,7.9
					c0,4.3-2.4,7.7-6,8.7v0.1c0.3,0.4,0.6,0.8,0.8,1.2l6.1,11.4c0.4,0.8,0.1,1.3-0.8,1.3h-1.2c-0.5,0-1.1-0.3-1.3-0.8l-6.7-12.5h-8
					v12.2c0.1,0.5-0.3,1.1-0.9,1.1c-0.1,0-0.1,0-0.2,0H230c-0.6,0-1-0.4-1.1-0.9c0-0.1,0-0.1,0-0.2L229.1,114.2z M239.6,128.6
					c3.8,0,6.2-2.7,6.2-6.6c0.1-2.3-1.2-4.5-3.3-5.5c-1.3-0.5-2.7-0.7-4.1-0.6h-6.3v12.7L239.6,128.6z"/>
				<path class="st4" d="M256.4,114.2c-0.1-0.5,0.3-1,0.9-1.1c0.1,0,0.1,0,0.2,0h0.9c0.6,0,1,0.4,1.1,0.9c0,0.1,0,0.1,0,0.2v27.6
					H273c0.5-0.1,1,0.3,1.1,0.9c0,0.1,0,0.1,0,0.2v0.5c0.1,0.5-0.3,1.1-0.9,1.1c-0.1,0-0.2,0-0.3,0h-15.5c-0.6,0-1-0.4-1.1-0.9
					c0-0.1,0-0.1,0-0.2L256.4,114.2z"/>
				<path class="st4" d="M278.8,114.2c-0.1-0.5,0.3-1,0.9-1.1c0.1,0,0.1,0,0.2,0h0.9c0.6,0,1,0.4,1.1,0.9c0,0.1,0,0.1,0,0.2v29.3
					c0.1,0.5-0.3,1.1-0.9,1.1c-0.1,0-0.1,0-0.2,0h-0.9c-0.6,0-1-0.4-1.1-0.9c0-0.1,0-0.1,0-0.2V114.2z"/>
				<path class="st4" d="M218.1,114.2c-0.1-0.5,0.3-1,0.9-1.1c0.1,0,0.1,0,0.2,0h0.9c0.6,0,1,0.4,1.1,0.9c0,0.1,0,0.1,0,0.2v29.3
					c0.1,0.5-0.3,1.1-0.9,1.1c-0.1,0-0.1,0-0.2,0h-0.9c-0.6,0-1-0.4-1.1-0.9c0-0.1,0-0.1,0-0.2V114.2z"/>
				<path class="st4" d="M290.6,114.2c-0.1-0.5,0.3-1,0.9-1.1c0.1,0,0.1,0,0.2,0h1.1c0.5,0,1.1,0.3,1.3,0.7l15.6,22
					c1.1,1.6,2.6,4.3,2.6,4.3h0.1c0,0-0.3-2.6-0.3-4.3v-21.6c-0.1-0.5,0.3-1,0.9-1.1c0.1,0,0.2,0,0.3,0h0.9c0.6,0,1,0.4,1.1,0.9
					c0,0.1,0,0.1,0,0.2v29.3c0.1,0.5-0.3,1.1-0.9,1.1c-0.1,0-0.1,0-0.2,0h-1.1c-0.5,0-1-0.3-1.3-0.7l-15.7-22
					c-1.1-1.6-2.6-4.3-2.6-4.3h-0.1c0,0,0.3,2.6,0.3,4.3v21.6c0.1,0.5-0.3,1.1-0.9,1.1c-0.1,0-0.1,0-0.2,0h-0.9
					c-0.6,0-1-0.4-1.1-0.9c0-0.1,0-0.1,0-0.2L290.6,114.2z"/>
				<path class="st4" d="M324.1,114.2c-0.1-0.5,0.3-1,0.9-1.1c0.1,0,0.1,0,0.2,0h15.6c0.5-0.1,1.1,0.3,1.1,0.9c0,0.1,0,0.2,0,0.3
					v0.5c0.1,0.5-0.3,1-0.9,1.1c-0.1,0-0.2,0-0.3,0h-13.5v11.5H338c0.5-0.1,1,0.3,1.1,0.9c0,0.1,0,0.1,0,0.2v0.6
					c0.1,0.5-0.3,1-0.9,1.1c-0.1,0-0.2,0-0.3,0h-10.8v11.7h14.4c0.5-0.1,1,0.3,1.1,0.9c0,0.1,0,0.2,0,0.3v0.5
					c0.1,0.5-0.3,1.1-0.9,1.1c-0.1,0-0.2,0-0.3,0h-16.4c-0.6,0-1-0.4-1.1-0.9c0-0.1,0-0.1,0-0.2L324.1,114.2z"/>
				<path class="st4" d="M344.6,137.9l0.7-0.5c0.4-0.4,1-0.4,1.4,0c0.1,0.1,0.1,0.1,0.1,0.2c1.6,2.1,3.9,3.7,6.4,4.4
					c3.7,0.9,6.7-0.6,7.5-3.7c1.9-7.7-13.9-9.6-11.6-19.1c1.2-5,6.2-7.2,11.6-5.9c2.7,0.6,5.1,2.1,6.9,4.2c0.4,0.4,0.4,1,0,1.4
					c0,0-0.1,0.1-0.1,0.1l-0.6,0.6c-0.3,0.4-1,0.5-1.4,0.2c-0.1-0.1-0.1-0.1-0.2-0.2c-1.4-1.7-3.3-2.9-5.4-3.4
					c-3.5-0.8-6.9,0.4-7.6,3.6c-1.8,7.4,14,9.1,11.6,18.9c-1.1,4.7-5.5,7.6-11.4,6.2c-3.3-0.8-6.2-2.7-8.2-5.4
					C344,138.9,344.1,138.2,344.6,137.9C344.6,137.9,344.6,137.9,344.6,137.9z"/>
			</g>
			<path class="st6" d="M410.6,117.1c-0.2-0.9-0.6-1.7-1.2-2.3l-5.6-5.2c-0.6-0.6-1.5-0.8-2.4-0.8l-1.1,0.2h-0.2l-2.6,0.4h-0.3
				l-2.2,0.3c-0.8,0.2-1.6,0.7-2,1.4l-3.1,6.6c-0.4,0.8-0.5,1.7-0.4,2.6l4.5,26c0.2,1.3,1.4,2.1,2.7,1.9l16.9-2.7
				c1.3-0.2,1.7-1.3,1.5-2.6L410.6,117.1z M400.2,118.7c-2,0.3-3.9-1-4.2-3c-0.3-2,1-3.9,3-4.2s3.9,1,4.2,3c0,0,0,0,0,0
				C403.5,116.5,402.2,118.4,400.2,118.7z"/>
			<path class="st6" d="M409.1,121.7c0.1-1-0.1-1.9-0.5-2.8l-4.1-7.1c-0.5-0.8-1.3-1.3-2.2-1.5l-1.2-0.2h-0.3l-2.8-0.4h-0.4
				l-2.3-0.3c-0.9-0.1-1.8,0.2-2.5,0.9l-5.3,5.8c-0.6,0.7-1,1.6-1.2,2.6l-3.5,28.1c-0.2,1.4,0.8,2.6,2.2,2.8l18.3,2.5
				c1.4,0.2,2.1-0.8,2.3-2.2L409.1,121.7z M397.9,120.2c-2.2-0.3-3.7-2.3-3.5-4.5c0.3-2.2,2.3-3.7,4.5-3.5c2.2,0.3,3.7,2.3,3.5,4.5
				c0,0,0,0.1,0,0.1C402,119,400,120.5,397.9,120.2z"/>
			<path class="st6" d="M196.4,71.8c0.1-0.6,0.6-0.9,1.2-0.9h1.5c0.6,0,1.1,0.3,1.2,0.9l10.9,29.4c0.2,0.8-0.1,1.3-0.9,1.3h-1
				c-0.6,0.1-1.1-0.3-1.3-0.9l-3.4-9.2H192l-3.3,9.2c-0.1,0.6-0.7,1-1.3,0.9h-0.9c-0.9,0-1.2-0.5-0.9-1.3L196.4,71.8z M203.7,89.7
				l-4.2-11.4c-0.5-1.5-1.2-4.1-1.2-4.1h-0.1c0,0-0.7,2.7-1.2,4.1l-4.2,11.4H203.7z"/>
			<path class="st6" d="M216.4,72.1c-0.1-0.5,0.3-1,0.9-1.1c0.1,0,0.1,0,0.2,0h0.9c0.6,0,1,0.4,1.1,0.9c0,0.1,0,0.1,0,0.2v27.7H233
				c0.5-0.1,1,0.3,1.1,0.9c0,0.1,0,0.2,0,0.3v0.5c0.1,0.5-0.3,1-0.9,1.1c-0.1,0-0.2,0-0.3,0h-15.6c-0.6,0-1-0.4-1.1-0.9
				c0-0.1,0-0.1,0-0.2V72.1z"/>
			<path class="st6" d="M241.6,73.7h-10.2c-0.5,0.1-1-0.3-1.1-0.9c0-0.1,0-0.2,0-0.3v-0.5c-0.1-0.5,0.3-1,0.9-1.1c0.1,0,0.2,0,0.3,0
				h23.5c0.6,0,1,0.4,1.1,0.9c0,0.1,0,0.1,0,0.2v0.5c0.1,0.5-0.3,1-0.9,1.1c-0.1,0-0.2,0-0.3,0h-10.2v27.7c0.1,0.5-0.3,1-0.9,1.1
				c-0.1,0-0.1,0-0.2,0h-0.9c-0.5,0.1-1.1-0.3-1.1-0.9c0-0.1,0-0.2,0-0.3L241.6,73.7z"/>
			<path class="st6" d="M257.9,74.3c-0.2-0.5,0.1-1.1,0.6-1.3c0.1,0,0.1,0,0.2,0l15.2-3.2c0.5-0.2,1.1,0.1,1.3,0.6
				c0,0.1,0,0.2,0.1,0.3l0.1,0.5c0.2,0.5-0.1,1.1-0.6,1.3c-0.1,0-0.2,0-0.3,0.1l-13.3,2.8l2.4,11.2l10.6-2.3
				c0.5-0.2,1.1,0.1,1.3,0.6c0,0.1,0,0.1,0,0.2l0.1,0.6c0.2,0.5-0.1,1.1-0.6,1.3c-0.1,0-0.2,0-0.3,0.1l-10.6,2.3l2.4,11.5l14-3
				c0.5-0.2,1.1,0.1,1.3,0.6c0,0.1,0,0.2,0.1,0.3l0.1,0.5c0.2,0.5-0.1,1.1-0.6,1.3c-0.1,0-0.2,0-0.3,0.1l-16,3.4
				c-0.5,0.2-1.1-0.1-1.2-0.7c0-0.1,0-0.1,0-0.2L257.9,74.3z"/>
			<path class="st6" d="M285.5,72.1c-0.1-0.5,0.3-1,0.9-1.1c0.1,0,0.1,0,0.2,0h8.5c3,0,4.5,0.3,5.7,0.9c3,1.5,4.8,4.6,4.7,7.9
				c0,4.3-2.4,7.7-6,8.7v0.1c0.3,0.4,0.6,0.8,0.8,1.3l6.1,11.4c0.4,0.8,0.1,1.3-0.8,1.3h-1.2c-0.5,0-1.1-0.3-1.3-0.8l-6.7-12.5h-7.9
				v12.2c0.1,0.5-0.3,1-0.9,1.1c-0.1,0-0.1,0-0.2,0h-0.9c-0.6,0-1-0.4-1.1-0.9c0-0.1,0-0.1,0-0.2V72.1z M296.1,86.4
				c3.8,0,6.2-2.7,6.2-6.6c0.1-2.3-1.2-4.5-3.3-5.5c-1.3-0.5-2.7-0.7-4.1-0.6h-6.3v12.7H296.1z"/>
			<path class="st6" d="M312.8,72.1c-0.1-0.5,0.3-1,0.9-1.1c0.1,0,0.1,0,0.2,0h1.1c0.5,0,1.1,0.3,1.4,0.7l15.6,22
				c1.1,1.6,2.6,4.3,2.6,4.3h0.1c0,0-0.3-2.6-0.3-4.3V72.1c-0.1-0.5,0.3-1,0.9-1.1c0.1,0,0.2,0,0.3,0h0.9c0.6,0,1,0.4,1.1,0.9
				c0,0.1,0,0.1,0,0.2v29.3c0.1,0.5-0.3,1-0.9,1.1c-0.1,0-0.1,0-0.2,0h-1.1c-0.5,0-1-0.3-1.3-0.7l-15.7-22c-1.1-1.6-2.6-4.3-2.6-4.3
				h-0.1c0,0,0.3,2.6,0.3,4.3v21.6c0.1,0.5-0.3,1-0.9,1.1c-0.1,0-0.1,0-0.2,0h-0.9c-0.6,0-1-0.4-1.1-0.9c0-0.1,0-0.1,0-0.2
				L312.8,72.1z"/>
			<path class="st6" d="M353.6,71.8c0.1-0.6,0.6-0.9,1.2-0.9h1.5c0.6,0,1.1,0.3,1.2,0.9l10.9,29.4c0.2,0.8-0.1,1.3-0.9,1.3h-1
				c-0.6,0.1-1.1-0.3-1.2-0.9l-3.4-9.2h-12.6l-3.3,9.2c-0.1,0.6-0.7,1-1.2,0.9h-1c-0.9,0-1.2-0.5-0.9-1.3L353.6,71.8z M361,89.7
				l-4.2-11.4c-0.5-1.5-1.2-4.1-1.2-4.1h-0.1c0,0-0.7,2.7-1.2,4.1l-4.2,11.4L361,89.7z"/>
			<path class="st6" d="M377.9,73.7h-10.2c-0.5,0.1-1-0.3-1.1-0.9c0-0.1,0-0.2,0-0.3v-0.5c-0.1-0.5,0.3-1,0.9-1.1c0.1,0,0.2,0,0.3,0
				h23.5c0.5-0.1,1.1,0.3,1.1,0.9c0,0.1,0,0.2,0,0.3v0.5c0.1,0.5-0.3,1-0.9,1.1c-0.1,0-0.2,0-0.3,0H381v27.7c0.1,0.5-0.3,1-0.9,1.1
				c-0.1,0-0.1,0-0.2,0H379c-0.5,0.1-1.1-0.3-1.1-0.9c0-0.1,0-0.2,0-0.3L377.9,73.7z"/>
			<path class="st6" d="M397,72.1c-0.1-0.5,0.3-1,0.9-1.1c0.1,0,0.1,0,0.2,0h1c0.6,0,1,0.4,1.1,0.9c0,0.1,0,0.1,0,0.2v40.5
				c0.1,0.5-0.3,1-0.9,1.1c-0.1,0-0.1,0-0.2,0h-1c-0.6,0-1-0.4-1.1-0.9c0-0.1,0-0.1,0-0.2V72.1z"/>
			<path class="st6" d="M405.3,72.2c-0.3-0.8,0-1.3,0.9-1.3h1c0.6-0.1,1.1,0.3,1.2,0.9l8.4,23.1c0.6,1.6,1.2,4.1,1.2,4.1h0.1
				c0,0,0.7-2.5,1.2-4.1l8.5-23.1c0.1-0.6,0.6-0.9,1.2-0.9h1.1c0.8,0,1.1,0.5,0.9,1.3l-10.9,29.3c-0.1,0.6-0.7,0.9-1.3,0.9h-1.5
				c-0.6,0-1.1-0.3-1.2-0.9L405.3,72.2z"/>
			<path class="st6" d="M436.3,72.1c-0.1-0.5,0.3-1,0.9-1.1c0.1,0,0.1,0,0.2,0h15.6c0.5-0.1,1,0.3,1.1,0.9c0,0.1,0,0.2,0,0.3v0.5
				c0.1,0.5-0.3,1-0.9,1.1c-0.1,0-0.2,0-0.3,0h-13.6v11.5h10.9c0.5-0.1,1.1,0.3,1.1,0.9c0,0.1,0,0.1,0,0.2v0.6
				c0.1,0.5-0.3,1.1-0.9,1.1c-0.1,0-0.2,0-0.3,0h-10.9v11.7h14.4c0.5-0.1,1,0.3,1.1,0.9c0,0.1,0,0.2,0,0.3v0.5
				c0.1,0.5-0.3,1-0.9,1.1c-0.1,0-0.2,0-0.3,0h-16.4c-0.6,0-1-0.4-1.1-0.9c0-0.1,0-0.1,0-0.2L436.3,72.1z"/>
			<path class="st6" d="M196.3,114.6c0.1-0.6,0.6-0.9,1.2-0.9h1.5c0.6,0,1.1,0.3,1.2,0.9l10.9,29.3c0.2,0.8-0.1,1.3-0.9,1.3h-1
				c-0.6,0.1-1.1-0.3-1.3-0.9l-3.4-9.2h-12.6l-3.3,9.2c-0.1,0.6-0.7,1-1.3,0.9h-0.9c-0.9,0-1.2-0.5-0.9-1.3L196.3,114.6z
				 M203.7,132.5l-4.2-11.5c-0.5-1.5-1.2-4.1-1.2-4.1h-0.1c0,0-0.7,2.7-1.2,4.1l-4.2,11.4L203.7,132.5z"/>
			<path class="st6" d="M228.2,114.8c-0.1-0.5,0.3-1,0.9-1.1c0.1,0,0.1,0,0.2,0h8.5c2.9,0,4.5,0.3,5.7,0.9c3,1.4,4.9,4.6,4.7,7.9
				c0,4.3-2.4,7.7-6,8.7v0.1c0.3,0.4,0.6,0.8,0.8,1.2l6.1,11.4c0.4,0.8,0.1,1.3-0.8,1.3h-1.2c-0.6,0-1.1-0.3-1.3-0.8l-6.7-12.5h-7.9
				v12.2c0.1,0.5-0.3,1-0.9,1.1c-0.1,0-0.1,0-0.2,0h-0.9c-0.6,0-1-0.4-1.1-0.9c0-0.1,0-0.1,0-0.2L228.2,114.8z M238.8,129.1
				c3.8,0,6.2-2.6,6.2-6.6c0.1-2.3-1.2-4.5-3.3-5.5c-1.3-0.5-2.7-0.7-4.1-0.6h-6.3v12.7L238.8,129.1z"/>
			<path class="st6" d="M255.6,114.8c-0.1-0.5,0.3-1,0.9-1.1c0.1,0,0.1,0,0.2,0h1c0.6,0,1,0.4,1.1,0.9c0,0.1,0,0.1,0,0.2v27.7h13.5
				c0.5-0.1,1,0.3,1.1,0.9c0,0.1,0,0.2,0,0.3v0.5c0.1,0.5-0.3,1-0.9,1.1c-0.1,0-0.2,0-0.3,0h-15.5c-0.6,0-1-0.4-1.1-0.9
				c0-0.1,0-0.1,0-0.2V114.8z"/>
			<path class="st6" d="M277.9,114.8c-0.1-0.5,0.3-1,0.9-1.1c0.1,0,0.1,0,0.2,0h1c0.6,0,1,0.4,1.1,0.9c0,0.1,0,0.1,0,0.2v29.3
				c0.1,0.5-0.3,1-0.9,1.1c-0.1,0-0.1,0-0.2,0h-1c-0.6,0-1-0.4-1.1-0.9c0-0.1,0-0.1,0-0.2V114.8z"/>
			<path class="st6" d="M217.3,114.8c-0.1-0.5,0.3-1,0.9-1.1c0.1,0,0.1,0,0.2,0h1c0.6,0,1,0.4,1.1,0.9c0,0.1,0,0.1,0,0.2v29.3
				c0.1,0.5-0.3,1-0.9,1.1c-0.1,0-0.1,0-0.2,0h-1c-0.6,0-1-0.4-1.1-0.9c0-0.1,0-0.1,0-0.2V114.8z"/>
			<path class="st6" d="M289.8,114.8c-0.1-0.5,0.3-1,0.9-1.1c0.1,0,0.1,0,0.2,0h1.1c0.5,0,1.1,0.3,1.4,0.7l15.6,22
				c1.1,1.6,2.6,4.3,2.6,4.3h0.1c0,0-0.3-2.6-0.3-4.3v-21.6c-0.1-0.5,0.3-1,0.9-1.1c0.1,0,0.2,0,0.3,0h0.9c0.6,0,1,0.4,1.1,0.9
				c0,0.1,0,0.1,0,0.2v29.3c0.1,0.5-0.3,1-0.9,1.1c-0.1,0-0.1,0-0.2,0h-1.1c-0.5,0-1-0.2-1.3-0.7l-15.7-22c-1.1-1.6-2.6-4.3-2.6-4.3
				h-0.1c0,0,0.3,2.6,0.3,4.3v21.6c0.1,0.5-0.3,1-0.9,1.1c-0.1,0-0.1,0-0.2,0h-1c-0.6,0-1-0.4-1.1-0.9c0-0.1,0-0.1,0-0.2
				L289.8,114.8z"/>
			<path class="st6" d="M323.3,114.8c-0.1-0.5,0.3-1,0.9-1.1c0.1,0,0.1,0,0.2,0h15.6c0.5-0.1,1,0.3,1.1,0.9c0,0.1,0,0.2,0,0.3v0.5
				c0.1,0.5-0.3,1-0.9,1.1c-0.1,0-0.2,0-0.3,0h-13.6v11.5h10.9c0.5-0.1,1,0.3,1.1,0.9c0,0.1,0,0.1,0,0.2v0.6
				c0.1,0.5-0.3,1.1-0.9,1.1c-0.1,0-0.2,0-0.3,0h-10.9v11.7h14.4c0.5-0.1,1.1,0.3,1.1,0.9c0,0.1,0,0.2,0,0.3v0.5
				c0.1,0.5-0.3,1-0.9,1.1c-0.1,0-0.2,0-0.3,0h-16.4c-0.6,0-1-0.4-1.1-0.9c0-0.1,0-0.1,0-0.2V114.8z"/>
			<path class="st6" d="M344.8,139.6l0.6-0.6c0.3-0.4,1-0.5,1.4-0.2c0.1,0.1,0.1,0.1,0.2,0.2c1.8,2,4.2,3.3,6.9,3.7
				c3.7,0.5,6.6-1.2,7.1-4.5c1-7.9-14.8-8.1-13.5-17.8c0.7-5.1,5.4-7.8,10.9-7.1c2.7,0.3,5.3,1.6,7.3,3.5c0.4,0.3,0.5,1,0.2,1.4
				c0,0-0.1,0.1-0.1,0.1l-0.5,0.7c-0.3,0.5-0.9,0.6-1.4,0.3c-0.1-0.1-0.2-0.1-0.2-0.2c-1.6-1.5-3.6-2.5-5.7-2.8
				c-3.6-0.5-6.8,1.1-7.2,4.4c-1,7.5,14.8,7.6,13.5,17.6c-0.6,4.8-4.7,8.1-10.6,7.3c-3.3-0.5-6.4-2.1-8.7-4.5
				C344.3,140.7,344.3,140,344.8,139.6C344.8,139.6,344.8,139.6,344.8,139.6z"/>
			<line class="st7" x1="185.4" y1="57.8" x2="185.4" y2="158.6"/>
			<line class="st7" x1="114.8" y1="145.2" x2="264.1" y2="145.2"/>
			<line class="st7" x1="136.9" y1="113.4" x2="462" y2="113.4"/>
			<line class="st7" x1="114.8" y1="102.5" x2="466.5" y2="102.5"/>
			<line class="st7" x1="321.5" y1="71" x2="470.9" y2="71"/>
			<line class="st7" x1="456.6" y1="57.8" x2="456.6" y2="158.6"/>
			<line class="st7" x1="416.8" y1="57.8" x2="416.8" y2="158.6"/>
			<line class="st7" x1="432.9" y1="57.8" x2="432.9" y2="158.6"/>
			<line class="st7" x1="436.3" y1="57.8" x2="436.3" y2="158.6"/>
			<line class="st7" x1="401.8" y1="57.8" x2="401.8" y2="158.6"/>
			<line class="st7" x1="370.1" y1="57.8" x2="370.1" y2="158.6"/>
			<line class="st7" x1="343.6" y1="57.8" x2="343.6" y2="158.6"/>
			<line class="st7" x1="339.2" y1="57.8" x2="339.2" y2="158.6"/>
			<line class="st7" x1="318.5" y1="57.8" x2="318.5" y2="158.6"/>
			<line class="st7" x1="308.4" y1="57.8" x2="308.4" y2="158.6"/>
			<line class="st7" x1="281" y1="57.8" x2="281" y2="158.6"/>
			<line class="st7" x1="285.5" y1="57.8" x2="285.5" y2="158.6"/>
			<line class="st7" x1="279.5" y1="57.8" x2="279.5" y2="158.6"/>
			<line class="st7" x1="257.8" y1="57.8" x2="257.8" y2="158.6"/>
			<line class="st7" x1="234.1" y1="57.8" x2="234.1" y2="158.6"/>
			<line class="st7" x1="228.2" y1="57.8" x2="228.2" y2="158.6"/>
			<line class="st7" x1="220.4" y1="57.8" x2="220.4" y2="158.6"/>
			<line class="st7" x1="216.4" y1="57.8" x2="216.4" y2="158.6"/>
			<line class="st7" x1="211.2" y1="57.8" x2="211.2" y2="158.6"/>
			<rect x="185.4" y="102.5" class="st8" width="271.2" height="11.2"/>
			<g id="toolsPanel">
				<path class="st9" d="M162.4,131.6V70.3c0-0.4,0.3-0.7,0.7-0.7l0,0h12.7c0.4,0,0.7,0.3,0.7,0.7c0,0,0,0,0,0v61.3H162.4z"/>
				<path class="st9" d="M175.8,69.8c0.3,0,0.6,0.2,0.6,0.6c0,0,0,0,0,0v61.2h-13.9V70.3c0-0.3,0.3-0.6,0.6-0.6H175.8 M175.8,69.6
					h-12.7c-0.4,0-0.8,0.4-0.8,0.8v61.4h14.2V70.3C176.6,69.9,176.2,69.5,175.8,69.6L175.8,69.6z"/>
				<rect x="163.5" y="119" class="st9" width="11.9" height="0.2"/>
				<path class="st9" d="M164.1,90.6h4.7c0.2,0,0.4,0.2,0.4,0.4v3.5c0,0.2-0.2,0.4-0.4,0.4h-4.7c-0.2,0-0.4-0.2-0.4-0.4V91
					C163.8,90.7,163.9,90.6,164.1,90.6z"/>
				<path class="st9" d="M162.4,72.2v-1.9c0-0.4,0.3-0.7,0.7-0.7l0,0h12.7c0.4,0,0.7,0.3,0.7,0.7c0,0,0,0,0,0v1.9H162.4z"/>
				<path class="st9" d="M175.8,69.7c0.3,0,0.6,0.3,0.6,0.6v1.8h-13.9v-1.8c0-0.3,0.3-0.6,0.6-0.6H175.8 M175.8,69.5h-12.7
					c-0.4,0-0.8,0.4-0.8,0.8v2h14.2v-2C176.6,69.9,176.2,69.5,175.8,69.5L175.8,69.5z"/>
				<path class="st9" d="M165.4,80.6L165.4,80.6C165.4,80.6,165.3,80.6,165.4,80.6l-0.3-3.6c0,0,0-0.1,0.1-0.1c0,0,0.1,0,0.1,0
					l2.6,2.4c0,0,0,0.1,0,0.1c0,0-0.1,0.1-0.1,0.1l-1.4,0.1L165.4,80.6C165.4,80.6,165.4,80.6,165.4,80.6z M165.3,77.2l0.2,3.1
					l0.9-0.8c0,0,0,0,0.1,0l1.2-0.1L165.3,77.2z"/>
				<polygon class="st9" points="171.1,77 171.3,80.5 172.3,79.6 173.7,79.4 				"/>
				<rect x="165" y="86.8" class="st9" width="3" height="2.6"/>
				<path class="st9" d="M168.1,89.5h-3.2v-2.8h3.2V89.5z M165.1,89.3h2.8V87h-2.8V89.3z"/>
				<path class="st9" d="M171.3,86.8h2.2c0.2,0,0.4,0.2,0.4,0.4V89c0,0.2-0.2,0.4-0.4,0.4h-2.2c-0.2,0-0.4-0.2-0.4-0.4v-1.8
					C170.9,87,171.1,86.8,171.3,86.8z"/>
				<path class="st9" d="M173.5,89.5h-2.2c-0.3,0-0.5-0.2-0.5-0.5v-1.8c0-0.3,0.2-0.5,0.5-0.5h2.2c0.3,0,0.5,0.2,0.5,0.5V89
					C174,89.3,173.8,89.5,173.5,89.5C173.5,89.5,173.5,89.5,173.5,89.5z M171.3,87c-0.2,0-0.3,0.1-0.3,0.3V89c0,0.2,0.1,0.3,0.3,0.3
					h2.2c0.2,0,0.3-0.1,0.3-0.3v-1.8c0-0.2-0.1-0.3-0.3-0.3L171.3,87z"/>
				<ellipse class="st9" cx="166.5" cy="92.7" rx="1.8" ry="1.4"/>
				<path class="st9" d="M166.5,94.2c-0.8-0.2-1.3-1-1.1-1.8c0.2-0.8,1-1.3,1.8-1.1c0.7,0.2,1.2,0.8,1.2,1.5
					C168.3,93.6,167.4,94.3,166.5,94.2z M166.5,91.4c-0.7,0.2-1.1,0.9-0.9,1.6s0.9,1.1,1.6,0.9c0.6-0.2,1-0.7,1-1.3
					C168.1,91.9,167.3,91.3,166.5,91.4z"/>
				<polygon class="st9" points="173.2,91.4 171.6,91.4 170.7,92.7 171.6,94 173.2,94 174.1,92.7 				"/>
				<path class="st9" d="M173.3,94.1h-1.8l-0.9-1.4l0.9-1.4h1.8l0.9,1.4L173.3,94.1z M171.6,93.9h1.6l0.8-1.2l-0.8-1.2h-1.6
					l-0.8,1.2L171.6,93.9z"/>
				<polygon class="st9" points="171.6,85.2 171.4,85.2 171.4,81.9 173.8,84.4 173.7,84.5 171.6,82.4 				"/>
				<path class="st9" d="M166.4,83.7c0,0,0-0.1,0-0.2c0.1-0.1,0.2-0.1,0.2,0c0.1,0.1,0.1,0.2,0,0.2
					C166.6,83.8,166.5,83.8,166.4,83.7l-1.1,1.3l1.9-0.5l0.5-1l-0.9-1l-1,0.5l-0.6,1.9l0,0L166.4,83.7z"/>
				
					<rect x="167.1" y="82" transform="matrix(0.7071 -0.7071 0.7071 0.7071 -9.3642 142.7295)" class="st9" width="0.9" height="1.3"/>
				<polygon class="st9" points="165.2,130.8 165.2,130.1 164.5,130.1 164.5,128.3 166.3,128.3 166.3,129 167,129 167,130.8 				"/>
				<path class="st9" d="M166.2,128.4v0.7h0.7v1.6h-1.6V130h-0.7v-1.6H166.2 M166.4,128.2h-2v2h0.7v0.7h2v-2h-0.7L166.4,128.2
					L166.4,128.2z"/>
				<rect x="165.5" y="129.3" class="st9" width="1.2" height="1.2"/>
				<path class="st9" d="M166.5,129.5v0.8h-0.8v-0.8H166.5 M166.9,129.1h-1.6v1.6h1.6V129.1z"/>
				<rect x="164.7" y="128.5" class="st9" width="1.4" height="1.4"/>
				<path class="st9" d="M166,128.6v1.2h-1.2v-1.2H166 M166.2,128.4h-1.6v1.6h1.6V128.4z"/>
				<rect x="168.1" y="124" class="st9" width="6.5" height="6.6"/>
				<path class="st9" d="M174.4,124.2v6.2h-6.1v-6.2H174.4 M174.8,123.8h-6.9v7h6.9C174.8,130.8,174.8,123.8,174.8,123.8z"/>
				<path class="st9" d="M174.6,124v6.6h-6.5V124H174.6 M174.8,123.8h-6.9v7h6.9V123.8z"/>
				<rect x="169.8" y="125.7" class="st9" width="3.2" height="3.2"/>
				<path class="st9" d="M172.9,125.8v3h-3v-3L172.9,125.8 M173.1,125.6h-3.4v3.4h3.4V125.6L173.1,125.6z"/>
				<rect x="170" y="125.9" class="st9" width="2.8" height="2.8"/>
				<path class="st9" d="M172.7,126v2.6h-2.6V126H172.7 M172.9,125.8h-3v3h3V125.8z"/>
				<rect x="164.5" y="120.4" class="st9" width="6.7" height="6.8"/>
				<path class="st9" d="M171.2,120.5v6.6h-6.5v-6.6H171.2 M171.4,120.3h-6.9v7h6.9V120.3z"/>
				<path class="st9" d="M174.5,122.5c-0.1,0-0.1,0-0.1-0.1v-1.1h-1.1c-0.1,0-0.1,0-0.1-0.1c0,0,0,0,0,0c0-0.1,0-0.1,0.1-0.1h1.2
					c0.1,0,0.1,0,0.1,0.1L174.5,122.5C174.6,122.4,174.6,122.5,174.5,122.5z"/>
				<polygon class="st9" points="174.1,122.3 175,122.3 174.5,122.8 				"/>
				<polygon class="st9" points="173.4,121.7 173.4,120.7 173,121.2 				"/>
				
					<rect x="163" y="70.8" transform="matrix(0.7071 -0.7071 0.7071 0.7071 -2.2393 136.4212)" class="st9" width="1.2" height="0.2"/>
				
					<rect x="163.5" y="70.3" transform="matrix(0.7071 -0.7071 0.7071 0.7071 -2.2393 136.4212)" class="st9" width="0.1" height="1.2"/>
				<polygon class="st9" points="175.4,71.4 174.9,70.9 175.4,70.4 175.5,70.6 175.1,70.9 175.5,71.3 				"/>
				<polygon class="st9" points="174.8,71.4 174.3,70.9 174.8,70.4 174.9,70.6 174.5,70.9 174.9,71.3 				"/>
				<rect x="167.6" y="72.9" class="st9" width="0.2" height="0.8"/>
				<rect x="168" y="72.9" class="st9" width="0.2" height="0.8"/>
				<rect x="168.4" y="72.9" class="st9" width="0.2" height="0.8"/>
				<rect x="168.8" y="72.9" class="st9" width="0.2" height="0.8"/>
				<rect x="169.2" y="72.9" class="st9" width="0.2" height="0.8"/>
				<rect x="169.6" y="72.9" class="st9" width="0.2" height="0.8"/>
				<rect x="170" y="72.9" class="st9" width="0.2" height="0.8"/>
				<rect x="170.4" y="72.9" class="st9" width="0.2" height="0.8"/>
				<rect x="170.8" y="72.9" class="st9" width="0.2" height="0.8"/>
				<rect x="171.1" y="72.9" class="st9" width="0.2" height="0.8"/>
				
					<rect x="164.6" y="97.2" transform="matrix(0.7071 -0.7071 0.7071 0.7071 -20.035 146.2534)" class="st9" width="3.9" height="0.2"/>
				<path class="st9" d="M171.1,98.8h-0.2c0-1.6,1.3-2.9,2.9-2.9v0.2C172.3,96.1,171.1,97.3,171.1,98.8z"/>
				<path class="st9" d="M166.3,102.2c-0.2-0.2-0.6-0.2-0.8,0c0,0,0,0,0,0c-0.3,0.3-0.2,0.6-0.6,1c0,0,1,0.3,1.5-0.1
					C166.6,102.8,166.6,102.4,166.3,102.2C166.3,102.2,166.3,102.2,166.3,102.2z"/>
				<polygon class="st9" points="168.1,100.8 168,100.3 167.7,100.3 166.1,101.8 166.7,102.4 				"/>
				
					<rect x="170.9" y="101.5" transform="matrix(0.7071 -0.7071 0.7071 0.7071 -21.7456 151.6322)" class="st9" width="2.4" height="1"/>
				<path class="st9" d="M173.9,100.7l-0.4-0.4c-0.1-0.1-0.2-0.1-0.3,0l-0.4,0.4l0.7,0.7l0.4-0.4C174,101,174,100.9,173.9,100.7
					C173.9,100.8,173.9,100.8,173.9,100.7z"/>
				<path class="st9" d="M170.7,103.5l0.9-0.1l-0.7-0.7L170.7,103.5z M170.9,103.3V103l0.3,0.3L170.9,103.3z"/>
				<path class="st9" d="M168,105.4l-0.4-0.4c-0.1-0.1-0.2-0.1-0.3,0l-0.1,0.2c0,0.1,0.1,0.2,0.1,0.3c0.1,0.3,0.2,0.5,0.3,0.7l0,0
					l0.4-0.4c0.1-0.1,0.2-0.2,0.1-0.3C168.1,105.5,168.1,105.4,168,105.4z"/>
				<path class="st9" d="M167,105.3l-0.1,0.1l-0.4,0.4c0,0.1,0.1,0.2,0.1,0.3c0.1,0.3,0.2,0.5,0.3,0.7l-0.1,0.1
					c-0.2-0.2-0.3-0.5-0.4-0.8c0-0.1,0-0.1-0.1-0.2l-0.5,0.5c0,0.1,0.1,0.2,0.1,0.3c0.1,0.3,0.2,0.5,0.3,0.7l-0.1,0.1
					c-0.2-0.2-0.3-0.5-0.4-0.8c0-0.1-0.1-0.2-0.1-0.2l-0.5,0.5L165,108l0.9-0.2l1.5-1.5c-0.2-0.2-0.3-0.5-0.4-0.8
					C167,105.4,167,105.4,167,105.3z M165.2,107.8l0.1-0.4l0.3,0.3L165.2,107.8z"/>
				<path class="st9" d="M173.6,106.4L173.6,106.4L173.6,106.4L173.6,106.4L173.6,106.4L173.6,106.4L173.6,106.4L173.6,106.4
					C173.5,106.3,173.5,106.3,173.6,106.4L173.6,106.4L173.6,106.4C173.6,106.4,173.6,106.5,173.6,106.4L173.6,106.4L173.6,106.4z"
					/>
				<path class="st9" d="M172.2,108.1c0-0.1,0-0.1,0.1-0.1c0,0,0,0,0,0l0,0c0,0,0.1,0,0.1,0.1c0,0,0,0,0,0l0,0c0,0,0,0.1-0.1,0.1
					c0,0,0,0,0,0l0,0C172.3,108.2,172.2,108.1,172.2,108.1z M171.9,108.2c-0.1,0-0.1-0.1-0.1-0.1c0,0,0,0,0,0l0,0
					c0-0.1,0.1-0.1,0.1-0.1l0,0c0.1,0,0.1,0.1,0.1,0.1c0,0,0,0,0,0l0,0C172,108.1,172,108.2,171.9,108.2L171.9,108.2L171.9,108.2z
					 M172.6,108c0,0,0-0.1,0.1-0.1c0,0,0,0,0,0l0,0c0,0,0.1,0,0.1,0l0,0c0,0.1,0,0.1-0.1,0.1c0,0,0,0,0,0l0,0
					C172.7,108,172.6,108,172.6,108L172.6,108z M171.5,108c0,0,0-0.1,0-0.1l0,0c0,0,0.1,0,0.1,0l0,0c0,0,0,0.1,0,0.1l0,0
					C171.6,108,171.6,108,171.5,108L171.5,108L171.5,108z M173,107.8c0,0,0-0.1,0-0.1l0,0c0,0,0.1,0,0.1,0c0,0,0,0,0,0l0,0
					c0,0,0,0.1,0,0.1l0,0H173L173,107.8C173,107.8,173,107.8,173,107.8L173,107.8z M171.1,107.8L171.1,107.8c0,0,0-0.1,0-0.1l0,0
					c0,0,0.1,0,0.1,0l0,0c0,0,0,0.1,0,0.1l0,0C171.2,107.8,171.2,107.8,171.1,107.8L171.1,107.8
					C171.2,107.8,171.1,107.8,171.1,107.8L171.1,107.8z M173.3,107.5c0,0,0-0.1,0-0.1l0,0c0,0,0.1,0,0.1,0l0,0c0,0,0,0.1,0,0.1l0,0
					C173.4,107.6,173.4,107.6,173.3,107.5L173.3,107.5z M170.9,107.4c0,0,0-0.1,0-0.1l0,0c0,0,0.1,0,0.1,0l0,0c0,0,0,0.1,0,0.1l0,0
					C171,107.5,170.9,107.5,170.9,107.4L170.9,107.4z M173.5,107.2c0,0-0.1-0.1-0.1-0.1c0,0,0,0,0,0l0,0c0-0.1,0.1-0.1,0.1-0.1
					c0,0,0,0,0,0l0,0c0,0,0.1,0.1,0.1,0.1c0,0,0,0,0,0l0,0C173.6,107.2,173.6,107.2,173.5,107.2L173.5,107.2L173.5,107.2z
					 M173.6,106.8c-0.1,0-0.1,0-0.1-0.1c0,0,0,0,0,0l0,0c0-0.1,0.1-0.1,0.1-0.1l0,0C173.7,106.6,173.7,106.7,173.6,106.8
					L173.6,106.8C173.7,106.8,173.7,106.8,173.6,106.8C173.6,106.8,173.6,106.8,173.6,106.8L173.6,106.8z"/>
				<path class="st9" d="M170.8,107.1C170.8,107.1,170.7,107.1,170.8,107.1L170.8,107.1L170.8,107.1L170.8,107.1L170.8,107.1
					C170.7,107.1,170.7,107.1,170.8,107.1C170.7,107,170.8,107,170.8,107.1L170.8,107.1C170.8,107.1,170.8,107.1,170.8,107.1
					L170.8,107.1L170.8,107.1L170.8,107.1L170.8,107.1z"/>
				<path class="st9" d="M170.8,105.8c0.2-0.3,0.4-0.5,0.7-0.6c0.3-0.1,0.6-0.2,0.9-0.1c0.6,0.1,1.1,0.6,1.2,1.2
					c0,0.1,0,0.1-0.1,0.1c0,0,0,0,0,0c-0.1,0-0.1,0-0.1-0.1l0,0c-0.1-0.3-0.2-0.5-0.4-0.6c-0.2-0.2-0.4-0.3-0.7-0.3
					c-0.5-0.1-1,0.2-1.2,0.6c-0.1,0.1-0.2,0.1-0.3,0.1C170.7,106,170.7,105.9,170.8,105.8L170.8,105.8z"/>
				<polygon class="st9" points="170.4,105.5 171.6,106.2 170.6,106.4 				"/>
				<path class="st9" d="M165,110.3l0.7,0.7l-0.7,0.7V110.3 M164.8,109.9v2.4l1.2-1.2C166,111.1,164.8,109.9,164.8,109.9z"/>
				<polygon class="st9" points="167,111.1 168.2,109.9 168.2,112.2 				"/>
				<path class="st9" d="M166.6,112.6h-0.2v-0.2h0.2V112.6z M166.6,112.2h-0.2V112h0.2V112.2z M166.6,111.8h-0.2v-0.2h0.2V111.8z
					 M166.6,111.4h-0.2v-0.2h0.2V111.4z M166.6,111h-0.2v-0.2h0.2V111z M166.6,110.6h-0.2v-0.2h0.2V110.6z M166.6,110.2h-0.2V110
					h0.2V110.2z M166.6,109.8h-0.2v-0.2h0.2V109.8z"/>
				<rect x="171.7" y="110.8" class="st9" width="0.2" height="0.2"/>
				<rect x="170.5" y="110.8" class="st9" width="0.2" height="0.2"/>
				<rect x="172.5" y="110.8" class="st9" width="0.2" height="0.2"/>
				<rect x="171.3" y="110.8" class="st9" width="0.2" height="0.2"/>
				<path class="st9" d="M173.4,110.8v0.2l0.2,0.2c0-0.1,0-0.3,0-0.4c-0.1-0.7-0.7-1.2-1.4-1.2H172c-0.3,0-0.6,0.2-0.8,0.4l0,0
					c-0.6,0-1,0.4-1,1s0.4,1,1,1l0,0c0.3,0.3,0.6,0.4,1,0.4h0.2c0.2,0,0.4-0.1,0.5-0.2v-0.2c-0.2,0.1-0.4,0.2-0.6,0.2h-0.1
					c-0.3,0-0.5-0.1-0.7-0.2c0.4-0.1,0.7-0.4,0.7-0.8h0.1v-0.2h-0.1c0-0.4-0.3-0.7-0.7-0.8c0.2-0.1,0.4-0.2,0.6-0.2h0.1
					C172.8,109.8,173.3,110.2,173.4,110.8z M170.4,110.9c0-0.4,0.3-0.7,0.6-0.8c-0.2,0.3-0.3,0.6-0.2,0.9c0,0.2,0.1,0.4,0.2,0.6
					C170.7,111.6,170.4,111.3,170.4,110.9L170.4,110.9z M172,110.9c0,0.4-0.3,0.7-0.7,0.8c-0.2-0.2-0.3-0.4-0.3-0.6l0,0h0.1v-0.2
					H171c0-0.3,0.1-0.5,0.3-0.7C171.7,110.2,172,110.5,172,110.9L172,110.9z"/>
				<polygon class="st9" points="173.1,110.9 173.2,113 173.8,112.4 174.6,112.3 				"/>
				<path class="st9" d="M165.8,115.3c0-0.2,0.2-0.3,0.4-0.3h0.4v-0.6h-1.4v1.4h0.6L165.8,115.3z"/>
				<path class="st9" d="M166.1,115.1h0.8c0.1,0,0.2,0.1,0.2,0.2v0.8c0,0.1-0.1,0.2-0.2,0.2h-0.8c-0.1,0-0.2-0.1-0.2-0.2v-0.8
					C165.9,115.2,166,115.1,166.1,115.1z"/>
				<path class="st9" d="M167,115.1c0.1,0,0.2,0.1,0.2,0.2v0.8c0,0.1-0.1,0.2-0.2,0.2h-0.8c-0.1,0-0.2-0.1-0.2-0.2c0,0,0,0,0,0v-0.8
					c0-0.1,0.1-0.2,0.2-0.2c0,0,0,0,0,0H167 M167,115h-0.8c-0.1,0-0.3,0.1-0.3,0.3c0,0,0,0,0,0v0.8c0,0.1,0.1,0.3,0.3,0.3
					c0,0,0,0,0,0h0.8c0.1,0,0.3-0.1,0.3-0.3l0,0v-0.8C167.3,115.1,167.2,115,167,115C167,115,167,115,167,115L167,115z"/>
				<circle class="st9" cx="167.2" cy="116.3" r="0.6"/>
				<path class="st9" d="M167.2,115.7c0.3,0,0.6,0.3,0.6,0.6c0,0.3-0.3,0.6-0.6,0.6c-0.3,0-0.6-0.3-0.6-0.6l0,0
					C166.6,115.9,166.8,115.7,167.2,115.7 M167.2,115.6c-0.4,0-0.7,0.3-0.7,0.7c0,0,0,0,0,0l0,0c0,0.4,0.3,0.7,0.7,0.7
					s0.7-0.3,0.7-0.7l0,0l0,0C167.9,115.9,167.6,115.6,167.2,115.6L167.2,115.6z"/>
				<path class="st9" d="M173.4,115.2l-0.4-0.4l0.6-0.7c0.1-0.1,0.3-0.1,0.4,0c0,0,0,0,0,0l0,0c0.1,0.1,0.1,0.3,0,0.4c0,0,0,0,0,0
					L173.4,115.2z"/>
				<path class="st9" d="M172.5,115.2l0.4,0.4l-1.7,1.5c0,0-0.1,0-0.1,0c-0.1,0-0.1,0-0.1-0.1c-0.1-0.1-0.1-0.2,0-0.3L172.5,115.2
					 M172.5,114.9l-0.1,0.2l-1.5,1.7c-0.1,0.2-0.1,0.4,0,0.5c0.1,0.1,0.2,0.1,0.3,0.1c0.1,0,0.2,0,0.3-0.1l1.7-1.5l0.1-0.1l-0.1-0.2
					l-0.4-0.4L172.5,114.9L172.5,114.9z"/>
				<path class="st9" d="M172.4,114.7L172.4,114.7c0.2-0.2,0.4-0.2,0.6,0l0.6,0.6c0.2,0.2,0.2,0.4,0,0.6v0c-0.2,0.2-0.4,0.2-0.6,0
					l-0.6-0.6C172.2,115.1,172.2,114.8,172.4,114.7z"/>
			</g>
			<path class="st9" d="M139.2,64.8c0-0.3,19.3-0.6,43.2-0.6"/>
			<path class="st9" d="M149.7,61.6c0,34,27.5,61.5,61.4,61.5c0,0,0,0,0.1,0"/>
			<path class="st9" d="M355.5,64.8c0-0.3-17.2-0.6-38.5-0.6"/>
			<path class="st9" d="M346.3,61.6c0,34-24.5,61.5-54.7,61.5"/>
			<path class="st9" d="M466.5,95.6c0,34-24.5,61.5-54.7,61.5"/>
			<line class="st10" x1="456.6" y1="148" x2="456.6" y2="169.2"/>
			<line class="st10" x1="446" y1="158.6" x2="467.2" y2="158.6"/>
			<circle class="st10" cx="456.6" cy="158.4" r="3"/>
			<line class="st10" x1="456.6" y1="49.3" x2="456.6" y2="70.4"/>
			<line class="st10" x1="446" y1="59.8" x2="467.2" y2="59.8"/>
			<circle class="st10" cx="456.6" cy="59.7" r="3"/>
			<line class="st10" x1="185.4" y1="49.3" x2="185.4" y2="70.4"/>
			<line class="st10" x1="174.8" y1="59.8" x2="196" y2="59.8"/>
			<circle class="st10" cx="185.4" cy="59.7" r="3"/>
			<line class="st10" x1="185.4" y1="150.1" x2="185.4" y2="171.2"/>
			<line class="st10" x1="174.8" y1="160.6" x2="196" y2="160.6"/>
			<circle class="st10" cx="185.4" cy="160.5" r="3"/>
			<rect x="185.4" y="102.5" class="st11" width="271.2" height="2.8"/>
			<line class="st12" x1="287.9" y1="145.2" x2="299.5" y2="145.2"/>
			<line class="st12" x1="293.7" y1="158.6" x2="293.7" y2="145.2"/>
			<line class="st12" x1="298.5" y1="158.6" x2="298.5" y2="145.2"/>
			<line class="st12" x1="319.4" y1="158.6" x2="319.4" y2="145.2"/>
			<line class="st12" x1="289.2" y1="158.6" x2="289.2" y2="145.2"/>
			<line class="st12" x1="308.7" y1="145.2" x2="320.3" y2="145.2"/>
			<line class="st12" x1="309.9" y1="158.6" x2="309.9" y2="145.2"/>
			<line class="st12" x1="336.4" y1="158.6" x2="336.4" y2="145.2"/>
			<line class="st12" x1="325.7" y1="145.2" x2="337.3" y2="145.2"/>
			<line class="st12" x1="326.9" y1="158.6" x2="326.9" y2="145.2"/>
			<line class="st12" x1="361.1" y1="158.6" x2="361.1" y2="145.8"/>
			<line class="st12" x1="350.3" y1="145.8" x2="362" y2="145.8"/>
			<line class="st12" x1="351.6" y1="158.6" x2="351.6" y2="145.8"/>
			<line class="st12" x1="408.2" y1="158.6" x2="408.2" y2="152.2"/>
			<line class="st12" x1="397.5" y1="152.2" x2="409.1" y2="152.2"/>
			<line class="st12" x1="398.7" y1="158.6" x2="398.7" y2="152.2"/>
			<line class="st12" x1="282.9" y1="158.6" x2="282.9" y2="145.2"/>
			<line class="st12" x1="272.1" y1="145.2" x2="283.8" y2="145.2"/>
			<line class="st12" x1="273.4" y1="158.6" x2="273.4" y2="145.2"/>
			<line class="st12" x1="252.4" y1="158.6" x2="252.4" y2="145.2"/>
			<line class="st12" x1="241.7" y1="145.2" x2="253.3" y2="145.2"/>
			<line class="st12" x1="242.9" y1="158.6" x2="242.9" y2="145.2"/>
			<line class="st12" x1="234.8" y1="158.6" x2="234.8" y2="145.2"/>
			<line class="st12" x1="224.1" y1="145.2" x2="235.7" y2="145.2"/>
			<line class="st12" x1="225.4" y1="158.6" x2="225.4" y2="145.2"/>
			<line class="st12" x1="214.4" y1="158.6" x2="214.4" y2="145.2"/>
			<line class="st12" x1="203.7" y1="145.2" x2="215.3" y2="145.2"/>
			<line class="st12" x1="205" y1="158.6" x2="205" y2="145.2"/>
			<line class="st12" x1="193.4" y1="158.6" x2="193.4" y2="145.2"/>
			<line class="st12" x1="182.6" y1="145.2" x2="194.2" y2="145.2"/>
			<line class="st12" x1="183.9" y1="158.6" x2="183.9" y2="145.2"/>
			<line class="st12" x1="201.6" y1="158.6" x2="201.6" y2="135.2"/>
			<line class="st12" x1="190.9" y1="135.2" x2="202.5" y2="135.2"/>
			<line class="st12" x1="192.1" y1="158.6" x2="192.1" y2="135.2"/>
			<circle class="st6" cx="180.4" cy="100.5" r="4.9"/>
			
				<linearGradient id="SVGID_1_" gradientUnits="userSpaceOnUse" x1="400.64" y1="98.35" x2="429.52" y2="98.35" gradientTransform="matrix(1 0 0 -1 0 242)">
				<stop  offset="0" style="stop-color:#FFFFFF"/>
				<stop  offset="0.76" style="stop-color:#2990E6"/>
			</linearGradient>
			<circle class="st13" cx="415.1" cy="143.6" r="14.4"/>
			
				<linearGradient id="SVGID_2_" gradientUnits="userSpaceOnUse" x1="787.7557" y1="273.4598" x2="816.6357" y2="273.4598" gradientTransform="matrix(-0.7071 -0.7071 -0.7071 0.7071 919.2533 451.1128)">
				<stop  offset="0" style="stop-color:#FFFFFF"/>
				<stop  offset="0.76" style="stop-color:#2990E6"/>
			</linearGradient>
			<circle class="st14" cx="158.6" cy="77.2" r="14.4"/>
			<g>
				<defs>
					
						<rect id="SVGID_3_" x="457.6" y="77.3" transform="matrix(0.1779 -0.984 0.984 0.1779 299.4081 521.8168)" width="8.9" height="8.8"/>
				</defs>
				<clipPath id="SVGID_4_">
					<use xlink:href="#SVGID_3_"  style="overflow:visible;"/>
				</clipPath>
				<g class="st15">
					<g id="Plane">
						<g>
							<defs>
								
									<rect id="SVGID_5_" x="457.6" y="77.3" transform="matrix(0.1779 -0.984 0.984 0.1779 299.4081 521.8167)" width="8.9" height="8.8"/>
							</defs>
							<clipPath id="SVGID_6_">
								<use xlink:href="#SVGID_5_"  style="overflow:visible;"/>
							</clipPath>
							<g class="st16">
								<g id="Mask_Group_119">
									<g id="Your_upcoming_flights">
										<path id="Path_1074-2" class="st17" d="M465.1,80.4c0.3-0.2,0.5-0.6,0.6-0.9c0-0.1,0-0.1,0-0.2l0,0l0,0
											c-0.1,0-0.1-0.1-0.2-0.1c-0.4,0-0.8,0.1-1.1,0.2c-0.4,0.2-0.8,0.5-1.2,0.8l-0.3,0.2l-0.7-0.4l0,0c0.1-0.1,0.1-0.2,0-0.2
											l-0.1-0.2c0,0-0.1-0.1-0.1-0.1c0,0-0.1,0-0.1,0l-0.2,0.2h-0.1c0.1-0.1,0.1-0.2,0-0.2l-0.1-0.2c0,0-0.1-0.1-0.1-0.1
											c0,0-0.1,0-0.1,0l-0.2,0.2l-0.8-0.4h-0.1c0,0-0.1,0-0.1,0l-0.3,0.2c0,0-0.1,0.1-0.1,0.1c0,0.1,0,0.1,0.1,0.2l1.5,1.2l0,0
											l0.4,0.6c-0.5,0.4-1,0.8-1.4,1.1l-0.1,0.1l-1.3-0.3l0,0c-0.1,0-0.1,0-0.2,0l-0.1,0.1c0,0-0.1,0.1-0.1,0.1
											c0,0.1,0,0.1,0.1,0.2l0.8,0.6l0,0l0.1,0.1c0,0.1-0.1,0.1-0.1,0.2c0,0.1,0,0.1,0,0.2l0,0c0,0.1,0.1,0.1,0.1,0.1h0.2
											l0.1,0.1l0,0l0.3,1c0,0.1,0.1,0.1,0.1,0.1l0,0c0,0,0.1,0,0.1,0l0.2-0.1c0,0,0.1-0.1,0.1-0.2l0,0l0.1-1.3l0.1-0.1
											c0.5-0.3,1-0.6,1.5-0.9l0.4,0.6l0,0l0.6,1.8c0,0.1,0.1,0.1,0.2,0.1l0,0l0.3-0.2c0,0,0.1-0.1,0.1-0.1 M463.9,84.4l-0.1-0.8
											l0.2-0.2c0.1-0.1,0.1-0.2,0-0.2c0,0,0,0,0,0l-0.1-0.2c-0.1-0.1-0.1-0.1-0.2-0.1v-0.1l0.2-0.2c0,0,0.1-0.1,0.1-0.1
											c0,0,0-0.1,0-0.1l-0.1-0.2c-0.1-0.1-0.2-0.1-0.2-0.1l0,0l-0.1-0.8l0.3-0.2c0.4-0.2,0.8-0.5,1.1-0.8L463.9,84.4z"/>
									</g>
								</g>
								<g id="Mask_Group_119-2">
									<g id="Your_upcoming_flights-2">
										<path id="Path_1074-2-2" class="st17" d="M481.8,240.2c0.2,0.3,0.5,0.6,0.8,0.7c0.1,0,0.1,0,0.2,0h0l0,0
											c0.1,0,0.1-0.1,0.1-0.2c0.1-0.4,0-0.8-0.1-1.1c-0.2-0.4-0.4-0.9-0.6-1.2l-0.1-0.3l0.5-0.7l0,0c0,0.1,0.2,0.1,0.2,0.1
											l0.2-0.1c0.1,0,0.1-0.2,0.1-0.2L483,237l0.1-0.1c0,0.1,0.1,0.1,0.2,0.1c0,0,0,0,0,0l0.2-0.1c0,0,0.1-0.1,0.1-0.1
											c0,0,0-0.1,0-0.1l-0.1-0.2l0.5-0.7l0,0c0-0.1,0-0.1,0-0.2l-0.2-0.4c0,0-0.1-0.1-0.1-0.1c0,0-0.1,0-0.2,0l-1.4,1.3l0,0
											l-0.6,0.3c-0.3-0.6-0.6-1.1-0.9-1.5c0,0-0.1-0.1-0.1-0.1l0.5-1.2l0,0c0-0.1,0-0.1,0-0.2l-0.1-0.2c0,0-0.1-0.1-0.1-0.1
											c-0.1,0-0.1,0-0.2,0l-0.7,0.7l0,0l-0.1,0.1c0,0-0.1-0.1-0.2-0.1c-0.1,0-0.1,0-0.2,0l0,0c-0.1,0-0.1,0.1-0.1,0.1
											c0,0.1,0,0.1,0,0.2h-0.1l0,0l-1,0.1c-0.1,0-0.1,0.1-0.1,0.1l0,0c0,0,0,0.1,0,0.1l0.1,0.2c0,0,0.1,0.1,0.1,0.1l0,0l1.3,0.3
											c0,0.1,0,0.1,0,0.1c0.2,0.6,0.4,1.1,0.7,1.6l-0.6,0.3h0l-1.9,0.4c-0.1,0-0.1,0.1-0.1,0.2v0.1l0.2,0.4c0,0,0.1,0.1,0.1,0.1
											h0.1h0.8l0.1,0.2c0,0.1,0.2,0.1,0.2,0.1l0.2-0.1c0.1,0,0.1-0.1,0.1-0.2h0.1l0.1,0.3c0,0,0.1,0.1,0.1,0.1c0,0,0.1,0,0.1,0
											l0.2-0.1c0.1,0,0.1-0.1,0.1-0.2c0,0,0,0,0,0l0,0h0.8c0,0.1,0.1,0.2,0.1,0.3c0.2,0.4,0.4,0.8,0.6,1.2L481.8,240.2z"/>
									</g>
								</g>
							</g>
						</g>
					</g>
				</g>
			</g>
			<text transform="matrix(1 0 0 1 199.12 163.5)" class="st11 st18 st19">L</text>
			<text transform="matrix(1 0 0 1 201.12 163.5)" class="st11 st18 st19">OGO logo</text>
			<text transform="matrix(1 0 0 1 221.19 163.5)" class="st11 st18 st19">L</text>
			<text transform="matrix(1 0 0 1 223.19 163.5)" class="st11 st18 st19">OGO logo</text>
			<text transform="matrix(1 0 0 1 198.31 172.79)" class="st11 st18 st20">50px</text>
			<text transform="matrix(1 0 0 1 218.82 172.79)" class="st11 st18 st20">140px</text>
		</g>
	</g>
</g>
</svg>
