<svg xmlns="http://www.w3.org/2000/svg" xmlns:xlink="http://www.w3.org/1999/xlink" viewBox="0 0 605.49 223"><defs><style>.cls-1,.cls-10,.cls-6{fill:none;}.cls-2{isolation:isolate;}.cls-3{fill:#2990e6;}.cls-4,.cls-5{fill:#495662;}.cls-10,.cls-5,.cls-6{stroke:#495662;stroke-miterlimit:10;}.cls-5,.cls-6{stroke-width:0.5px;}.cls-7,.cls-8{mix-blend-mode:color-burn;}.cls-7{fill:url(#linear-gradient);}.cls-8{fill:url(#linear-gradient-2);}.cls-9{clip-path:url(#clip-path);}.cls-10{stroke-width:0.25px;}</style><linearGradient id="linear-gradient" x1="210.49" y1="125.62" x2="260.85" y2="125.62" gradientUnits="userSpaceOnUse"><stop offset="0" stop-color="#2990e6"/><stop offset="1" stop-color="#fff"/></linearGradient><linearGradient id="linear-gradient-2" x1="280.42" y1="92.48" x2="330.77" y2="92.48" xlink:href="#linear-gradient"/><clipPath id="clip-path"><rect class="cls-1" x="281.59" y="61.29" width="24" height="24"/></clipPath></defs><title>Asset 1</title><g class="cls-2"><g id="Layer_2" data-name="Layer 2"><g id="Layer_1-2" data-name="Layer 1"><path class="cls-3" d="M280.1,128.4H244.26l-7.5,21.54H220.05L255,57.42h14.42l35,92.52H287.66Zm-31.33-13h26.82L262.18,77.05Z"/><path class="cls-3" d="M354.51,149.94a23.85,23.85,0,0,1-1.78-6.42,24,24,0,0,1-18,7.69q-10.37,0-16.91-5.91a18.91,18.91,0,0,1-6.54-14.62q0-11,8.16-16.87t23.36-5.88h9.47v-4.51a12,12,0,0,0-3-8.54q-3-3.21-9.09-3.21a13.62,13.62,0,0,0-8.64,2.63,8.17,8.17,0,0,0-3.37,6.71H312.7a17.13,17.13,0,0,1,3.75-10.58,24.89,24.89,0,0,1,10.2-7.72A35.73,35.73,0,0,1,341,79.91q12.07,0,19.26,6.07T367.67,103v31q0,9.28,2.6,14.81v1.08Zm-17-11.12a17.49,17.49,0,0,0,8.61-2.23,14.86,14.86,0,0,0,6.07-6v-13H343.9q-8.58,0-12.9,3a9.68,9.68,0,0,0-4.32,8.45,9,9,0,0,0,2.95,7.09A11.45,11.45,0,0,0,337.55,138.82Z"/><rect class="cls-4" x="218.84" y="147.78" width="3.87" height="3.87"/><rect class="cls-4" x="203.82" y="147.78" width="3.87" height="3.87"/><rect class="cls-4" x="251.39" y="147.78" width="3.87" height="3.87"/><rect class="cls-4" x="234.81" y="102.55" width="3.87" height="3.87"/><rect class="cls-4" x="285.76" y="102.55" width="3.87" height="3.87"/><rect class="cls-4" x="246.84" y="112.5" width="3.87" height="3.87"/><rect class="cls-4" x="273.65" y="112.5" width="3.87" height="3.87"/><rect class="cls-4" x="234.81" y="147.78" width="3.87" height="3.87"/><rect class="cls-4" x="285.76" y="147.78" width="3.87" height="3.87"/><rect class="cls-4" x="301.72" y="147.78" width="3.87" height="3.87"/><rect class="cls-4" x="253.32" y="55.48" width="3.87" height="3.87"/><rect class="cls-4" x="267.35" y="55.48" width="3.87" height="3.87"/><line class="cls-5" x1="253.32" y1="149.72" x2="205.75" y2="149.72"/><line class="cls-4" x1="388.33" y1="149.72" x2="340.76" y2="149.72"/><rect class="cls-4" x="340.76" y="149.47" width="47.57" height="0.5"/><line class="cls-4" x1="350.46" y1="79.91" x2="302.89" y2="79.91"/><rect class="cls-4" x="302.89" y="79.66" width="47.57" height="0.5"/><path class="cls-6" d="M272.22,81.13s-8.94,6.56-20.38-1.16-22.65,2.29-22.65,2.29"/><path class="cls-6" d="M272.22,84.48s-8.94,6.55-20.38-1.17-22.65,2.29-22.65,2.29"/><path class="cls-6" d="M272.22,87.82s-8.94,6.55-20.38-1.16S229.19,89,229.19,89"/><path class="cls-6" d="M272.22,91.16s-8.94,6.55-20.38-1.16-22.65,2.29-22.65,2.29"/><path class="cls-6" d="M272.22,94.5s-8.94,6.56-20.38-1.16-22.65,2.29-22.65,2.29"/><circle class="cls-6" cx="303.66" cy="92.48" r="25.18"/><circle class="cls-7" cx="235.67" cy="125.62" r="25.18"/><circle class="cls-8" cx="305.59" cy="92.48" r="25.18"/><path class="cls-6" d="M284,130.51H248.13l-7.5,21.54H223.92l35-92.52h14.42l35,92.52H291.53Zm-31.33-13h26.82L266.05,79.16Z"/><path class="cls-6" d="M358.38,152.05a23.74,23.74,0,0,1-1.78-6.42,24,24,0,0,1-18.05,7.69q-10.35,0-16.9-5.91a18.91,18.91,0,0,1-6.54-14.61q0-11,8.16-16.87t23.35-5.88h9.47v-4.51a12.05,12.05,0,0,0-3-8.55c-2-2.14-5-3.21-9.09-3.21a13.57,13.57,0,0,0-8.64,2.64,8.15,8.15,0,0,0-3.37,6.7H316.57a17.13,17.13,0,0,1,3.75-10.58,24.94,24.94,0,0,1,10.19-7.72,35.91,35.91,0,0,1,14.4-2.8q12.07,0,19.25,6.07t7.37,17.06v31q0,9.27,2.61,14.8v1.08Zm-17-11.12a17.59,17.59,0,0,0,8.61-2.22,14.88,14.88,0,0,0,6.07-6v-13h-8.32q-8.58,0-12.9,3a9.68,9.68,0,0,0-4.32,8.45,9,9,0,0,0,2.95,7.08A11.44,11.44,0,0,0,341.41,140.93Z"/><g class="cls-9"><g id="Curser"><g class="cls-9"><g id="Mask_Group_156" data-name="Mask Group 156"><g id="cursor-arrow-2"><g id="Frames-24px"><rect id="Rectangle_1693" data-name="Rectangle 1693" class="cls-1" x="281.59" y="61.29" width="24" height="24"/></g><g id="Solid"><path id="Path_1914" data-name="Path 1914" class="cls-4" d="M287,66.73l5.48,14.09,1.56-7,7.05-1.57Z"/></g></g></g></g></g></g><rect class="cls-4" x="345.14" y="98.24" width="3.87" height="3.87"/><rect class="cls-4" x="322.9" y="105.31" width="3.87" height="3.87"/><path class="cls-10" d="M324.84,107.24h5.84a3.39,3.39,0,0,0,3.43-3.57c0-3.6,5.85-3.49,5.85-3.49h7.12"/><path id="Path_2055" data-name="Path 2055" class="cls-3" d="M605.49,9V0H595.06V3H309.71V0H299.27V3H10.44V0H0V9H3.48v98H0v9H3.48v98H0v9H10.44v-3H299.27v3h10.44v-3H595.06v3h10.43v-9h-4.64V116h4.64v-9h-4.64V9Zm-7,98h-3.48v9h3.48v98h-3.48v4H309.71v-4H299.27v4H10.44v-4H5.8V116h4.64v-9H5.8V9h4.64V5H299.27V9h10.44V5H595.06V9h3.48Z"/></g></g></g></svg>