<?xml version="1.0" encoding="utf-8"?>
<!-- Generator: Adobe Illustrator 23.0.1, SVG Export Plug-In . SVG Version: 6.00 Build 0)  -->
<svg version="1.1" xmlns="http://www.w3.org/2000/svg" xmlns:xlink="http://www.w3.org/1999/xlink" x="0px" y="0px"
	 viewBox="0 0 2720.2 1529.5" style="enable-background:new 0 0 2720.2 1529.5;" xml:space="preserve">
<style type="text/css">
	.st0{fill:#004763;}
	.st1{fill:#FFFFFF;}
	.st2{opacity:7.000000e-02;fill:none;stroke:#000000;stroke-miterlimit:10;enable-background:new    ;}
	.st3{fill:#DDDDDD;}
	.st4{fill:#E4E4E4;}
	.st5{clip-path:url(#SVGID_2_);}
	.st6{fill:#BDC6CF;}
	.st7{fill:#FFFFFF;stroke:#FFFFFF;stroke-width:4;stroke-miterlimit:10;}
	.st8{clip-path:url(#SVGID_4_);}
	.st9{fill:#005BAA;stroke:#005BAA;stroke-width:12;stroke-linecap:round;stroke-miterlimit:10;}
	.st10{fill:#005BAA;}
	.st11{font-family:'MyriadPro-Regular';}
	.st12{font-size:26.9088px;}
	.st13{fill:none;stroke:#005BAA;stroke-width:12;stroke-linecap:round;stroke-miterlimit:10;}
	.st14{clip-path:url(#SVGID_6_);}
	.st15{fill:#F0F0F0;}
	.st16{fill:#2990E6;}
	.st17{clip-path:url(#SVGID_8_);}
	.st18{fill:#005BAA;stroke:#005BAA;stroke-width:12;stroke-miterlimit:10;}
	.st19{fill:none;stroke:#005BAA;stroke-width:12;stroke-miterlimit:10;}
	.st20{clip-path:url(#SVGID_10_);}
	.st21{clip-path:url(#SVGID_12_);}
	.st22{clip-path:url(#SVGID_14_);}
</style>
<g id="background">
</g>
<g id="shadow">
</g>
<g id="object">
	<rect class="st0" width="2720.2" height="1529.5"/>
	<g>
		<g>
			<g>
				<g id="Layer_1-2_1_">
					<path class="st1" d="M619.9,406.8v694.4c0,16.8-13.6,30.3-30.3,30.3H254.9c-16.8,0-30.3-13.6-30.3-30.3V406.8
						c0-16.8,13.6-30.3,30.3-30.3h334.7C606.3,376.5,619.9,390,619.9,406.8z"/>
					<path class="st2" d="M617.2,407.8v693c0,15.3-12.4,27.7-27.7,27.7h-334c-15.3,0-27.7-12.4-27.7-27.7v-693
						c0-15.3,12.4-27.7,27.7-27.7h334C604.8,380.1,617.2,392.5,617.2,407.8z"/>
					<rect x="256.9" y="437.4" class="st3" width="330.7" height="619.1"/>
					<path class="st4" d="M456.7,409.1L456.7,409.1c0,1.4-1.1,2.5-2.5,2.5h-52.6c-1.4,0-2.5-1.1-2.5-2.5l0,0c0-1.4,1.1-2.5,2.5-2.5
						h52.6C455.5,406.6,456.7,407.7,456.7,409.1z"/>
					<path class="st4" d="M386.5,408.6v0.9c0,1.2-0.9,2.1-2.1,2.1l0,0c-1.2,0-2.1-0.9-2.1-2.1v-0.9c0-1.2,0.9-2.1,2.1-2.1l0,0
						C385.6,406.6,386.5,407.5,386.5,408.6z"/>
					<circle class="st4" cx="422.2" cy="1091.7" r="23"/>
					<circle class="st1" cx="422.2" cy="1091.7" r="21.5"/>
				</g>
			</g>
			<g>
				<defs>
					<rect id="SVGID_1_" x="256.9" y="437.4" width="330.7" height="619.1"/>
				</defs>
				<clipPath id="SVGID_2_">
					<use xlink:href="#SVGID_1_"  style="overflow:visible;"/>
				</clipPath>
				<g class="st5">
					<rect x="257.3" y="250.3" class="st6" width="330.2" height="351.2"/>
					<rect x="256.9" y="621.5" class="st6" width="155.5" height="627.6"/>
					<rect x="432.4" y="621.5" class="st6" width="155.5" height="627.6"/>
				</g>
			</g>
			<g>
				<g>
					<circle class="st7" cx="587.9" cy="611.3" r="138.9"/>
					<circle class="st3" cx="587.9" cy="611.3" r="120"/>
					<g>
						<defs>
							<circle id="SVGID_3_" cx="587.9" cy="611.3" r="120"/>
						</defs>
						<clipPath id="SVGID_4_">
							<use xlink:href="#SVGID_3_"  style="overflow:visible;"/>
						</clipPath>
						<g class="st8">
							<rect x="467.9" y="651.3" class="st6" width="120" height="80"/>
							<rect x="467.9" y="491.3" class="st6" width="120" height="80"/>
						</g>
					</g>
					<line class="st9" x1="586.8" y1="691.3" x2="586.8" y2="691.3"/>
				</g>
				
					<rect x="402.6" y="714.6" transform="matrix(0.7071 -0.7071 0.7071 0.7071 -387.7939 541.8564)" class="st1" width="115.1" height="48.9"/>
			</g>
			<g>
				<path class="st1" d="M677.5,691.7c0,10.4-8.4,18.8-18.8,18.8h-21h-21c-10.4,0-18.8-8.4-18.8-18.8l0,0l0,0
					c0-10.4,8.4-18.8,18.8-18.8h21h21C669,672.8,677.5,681.2,677.5,691.7L677.5,691.7L677.5,691.7z"/>
				<text transform="matrix(1 0 0 1 610.1909 699.5483)" class="st10 st11 st12">0px</text>
			</g>
			<g>
				<line class="st13" x1="507.9" y1="651.3" x2="507.9" y2="571.3"/>
				<path class="st1" d="M547.7,542.1c0,10.4-8.4,18.8-18.8,18.8h-21h-21c-10.4,0-18.8-8.4-18.8-18.8l0,0v0
					c0-10.4,8.4-18.8,18.8-18.8h21h21C539.3,523.3,547.7,531.7,547.7,542.1L547.7,542.1L547.7,542.1z"/>
				<text transform="matrix(1 0 0 1 480.3949 550.0338)" class="st10 st11 st12">15px</text>
			</g>
			<g>
				<g>
					<g>
						<circle class="st7" cx="422.4" cy="849.4" r="138.9"/>
						<circle class="st3" cx="422.4" cy="849.4" r="120"/>
						<g>
							<defs>
								<circle id="SVGID_5_" cx="422.4" cy="849.4" r="120"/>
							</defs>
							<clipPath id="SVGID_6_">
								<use xlink:href="#SVGID_5_"  style="overflow:visible;"/>
							</clipPath>
							<g class="st14">
								<rect x="302.4" y="729.8" class="st6" width="80" height="239.6"/>
								<rect x="462.4" y="729.8" class="st6" width="80" height="239.6"/>
							</g>
						</g>
						<line class="st9" x1="382.4" y1="929.4" x2="462.4" y2="929.4"/>
					</g>
					
						<rect x="237.1" y="952.6" transform="matrix(0.7071 -0.7071 0.7071 0.7071 -604.6011 494.5291)" class="st1" width="115.1" height="48.9"/>
				</g>
				<g>
					<path class="st1" d="M550.9,929.4c0,10.4-8.4,18.8-18.8,18.8h-21h-21c-10.4,0-18.8-8.4-18.8-18.8v0l0,0
						c0-10.4,8.4-18.8,18.8-18.8h21h21C542.5,910.5,550.9,919,550.9,929.4L550.9,929.4L550.9,929.4z"/>
					<text transform="matrix(1 0 0 1 483.6559 937.2671)" class="st10 st11 st12">15px</text>
				</g>
			</g>
		</g>
		<g>
			<g>
				<g id="Layer_1-2">
					<path class="st1" d="M808.3,226.9h1550.3c31,0,56.2,25.1,56.2,56.2v948.9c0,31-25.1,56.2-56.2,56.2H808.3
						c-31,0-56.2-25.1-56.2-56.2V283.1C752.1,252.1,777.3,226.9,808.3,226.9z"/>
					<path class="st2" d="M806.3,235.6h1554.1c25.9,0,46.9,21,46.9,46.9v961.5c0,25.9-21,46.9-46.9,46.9H806.3
						c-25.9,0-46.9-21-46.9-46.9V282.5C759.4,256.6,780.4,235.6,806.3,235.6z"/>
					<polygon class="st4" points="2469.7,1302.6 674.1,1302.6 648,1288.1 2495.7,1288.1 					"/>
					<path class="st15" d="M661.5,1256.3h1818.2c8.8,0,16,7.1,16,16l0,0v15.8l0,0H648l0,0v-18.4
						C648,1262.3,654.1,1256.3,661.5,1256.3z"/>
					<path class="st1" d="M1410.2,1230.3h346.6c10.5,0,19,8.5,19,19v2.5c0,10.5-8.5,19-19,19h-346.6c-10.5,0-19-8.5-19-19v-2.5
						C1391.2,1238.8,1399.7,1230.3,1410.2,1230.3z"/>
					<rect x="827.3" y="305" class="st3" width="1509.3" height="887.7"/>
				</g>
			</g>
			<g>
				<rect x="1043.6" y="305" class="st6" width="1080" height="271.9"/>
				
					<rect x="589.8" y="738.8" transform="matrix(-1.836970e-16 1 -1 -1.836970e-16 1782.4633 -284.7882)" class="st16" width="887.7" height="20"/>
				
					<rect x="1689.8" y="738.8" transform="matrix(-1.836970e-16 1 -1 -1.836970e-16 2882.4634 -1384.7882)" class="st16" width="887.7" height="20"/>
				<rect x="1043.6" y="596.9" class="st6" width="530" height="595.8"/>
				<rect x="1593.6" y="596.9" class="st6" width="530" height="595.8"/>
				<g>
					<g>
						<g>
							<circle class="st7" cx="1583.6" cy="586.9" r="138.9"/>
							<g>
								<defs>
									<circle id="SVGID_7_" cx="1583.6" cy="586.9" r="120"/>
								</defs>
								<clipPath id="SVGID_8_">
									<use xlink:href="#SVGID_7_"  style="overflow:visible;"/>
								</clipPath>
								<g class="st17">
									<rect x="1463.6" y="626.9" class="st6" width="80" height="80"/>
									<rect x="1463.6" y="466.9" class="st6" width="240" height="80"/>
									<rect x="1623.6" y="626.9" class="st6" width="80" height="80"/>
								</g>
							</g>
							<line class="st18" x1="1543.6" y1="666.9" x2="1623.6" y2="666.9"/>
							<line class="st19" x1="1503.6" y1="626.9" x2="1503.6" y2="546.9"/>
						</g>
						
							<rect x="1398.3" y="690.1" transform="matrix(0.7071 -0.7071 0.7071 0.7071 -78.8655 1238.7847)" class="st1" width="115.1" height="48.9"/>
					</g>
					<g>
						<path class="st1" d="M1543.4,517.7c0,10.4-8.4,18.8-18.8,18.8h-21h-21c-10.4,0-18.8-8.4-18.8-18.8v0l0,0
							c0-10.4,8.4-18.8,18.8-18.8h21h21C1535,498.8,1543.4,507.3,1543.4,517.7L1543.4,517.7L1543.4,517.7z"/>
						<text transform="matrix(1 0 0 1 1476.1259 525.5884)" class="st10 st11 st12">20px</text>
					</g>
					<g>
						<path class="st1" d="M1712.2,666.9c0,10.4-8.4,18.8-18.8,18.8h-21h-21c-10.4,0-18.8-8.4-18.8-18.8l0,0l0,0
							c0-10.4,8.4-18.8,18.8-18.8h21h21C1703.8,648,1712.2,656.5,1712.2,666.9L1712.2,666.9L1712.2,666.9z"/>
						<text transform="matrix(1 0 0 1 1644.9197 674.7754)" class="st10 st11 st12">20px</text>
					</g>
				</g>
				<g>
					<g>
						<circle class="st7" cx="2133.8" cy="586.6" r="138.9"/>
						<g>
							<defs>
								<circle id="SVGID_9_" cx="2133.8" cy="586.6" r="120"/>
							</defs>
							<use xlink:href="#SVGID_9_"  style="overflow:visible;fill:#DDDDDD;"/>
							<clipPath id="SVGID_10_">
								<use xlink:href="#SVGID_9_"  style="overflow:visible;"/>
							</clipPath>
							<g class="st20">
								<rect x="2013.8" y="626.6" class="st3" width="80" height="80"/>
								<rect x="2093.6" y="466.6" class="st3" width="80" height="240"/>
								<rect x="2013.8" y="466.6" class="st3" width="80" height="80"/>
							</g>
						</g>
						<g>
							<defs>
								<circle id="SVGID_11_" cx="2133.8" cy="586.6" r="120"/>
							</defs>
							<clipPath id="SVGID_12_">
								<use xlink:href="#SVGID_11_"  style="overflow:visible;"/>
							</clipPath>
							<g class="st21">
								<rect x="2013.8" y="626.6" class="st6" width="80" height="80"/>
								<rect x="2093.6" y="466.6" class="st16" width="80" height="240"/>
								<rect x="2013.8" y="466.6" class="st6" width="80" height="80"/>
							</g>
						</g>
						<line class="st9" x1="2093.8" y1="666.6" x2="2173.8" y2="666.6"/>
					</g>
					
						<rect x="1948.5" y="689.8" transform="matrix(0.7071 -0.7071 0.7071 0.7071 82.5028 1627.7073)" class="st1" width="115.1" height="48.9"/>
				</g>
				<g>
					<path class="st1" d="M2262.4,666.6c0,10.4-8.4,18.8-18.8,18.8h-20.9h-21c-10.4,0-18.8-8.4-18.8-18.8v0l0,0
						c0-10.4,8.4-18.8,18.8-18.8h21h20.9C2253.9,647.7,2262.4,656.1,2262.4,666.6L2262.4,666.6L2262.4,666.6z"/>
					<text transform="matrix(1 0 0 1 2195.075 674.448)" class="st10 st11 st12">20px</text>
				</g>
				<g>
					<g>
						<g>
							<circle class="st7" cx="1583.6" cy="586.9" r="138.9"/>
							<circle class="st3" cx="1583.6" cy="586.9" r="120"/>
							<g>
								<defs>
									<circle id="SVGID_13_" cx="1583.6" cy="586.9" r="120"/>
								</defs>
								<clipPath id="SVGID_14_">
									<use xlink:href="#SVGID_13_"  style="overflow:visible;"/>
								</clipPath>
								<g class="st22">
									<rect x="1463.6" y="626.9" class="st6" width="80" height="80"/>
									<rect x="1463.6" y="466.9" class="st6" width="240" height="80"/>
									<rect x="1623.6" y="626.9" class="st6" width="80" height="80"/>
								</g>
							</g>
							<line class="st9" x1="1543.6" y1="666.9" x2="1623.6" y2="666.9"/>
							<line class="st13" x1="1503.6" y1="626.9" x2="1503.6" y2="546.9"/>
						</g>
						
							<rect x="1398.3" y="690.1" transform="matrix(0.7071 -0.7071 0.7071 0.7071 -78.8655 1238.7847)" class="st1" width="115.1" height="48.9"/>
					</g>
					<g>
						<path class="st1" d="M1543.4,517.7c0,10.4-8.4,18.8-18.8,18.8h-21h-21c-10.4,0-18.8-8.4-18.8-18.8v0l0,0
							c0-10.4,8.4-18.8,18.8-18.8h21h21C1535,498.8,1543.4,507.3,1543.4,517.7L1543.4,517.7L1543.4,517.7z"/>
						<text transform="matrix(1 0 0 1 1476.1259 525.5884)" class="st10 st11 st12">20px</text>
					</g>
					<g>
						<path class="st1" d="M1712.2,666.9c0,10.4-8.4,18.8-18.8,18.8h-21h-21c-10.4,0-18.8-8.4-18.8-18.8l0,0l0,0
							c0-10.4,8.4-18.8,18.8-18.8h21h21C1703.8,648,1712.2,656.5,1712.2,666.9L1712.2,666.9L1712.2,666.9z"/>
						<text transform="matrix(1 0 0 1 1644.9197 674.7754)" class="st10 st11 st12">20px</text>
					</g>
				</g>
				<g>
					<path class="st1" d="M1712.2,666.9c0,10.4-8.4,18.8-18.8,18.8h-21h-21c-10.4,0-18.8-8.4-18.8-18.8l0,0l0,0
						c0-10.4,8.4-18.8,18.8-18.8h21h21C1703.8,648,1712.2,656.5,1712.2,666.9L1712.2,666.9L1712.2,666.9z"/>
					<text transform="matrix(1 0 0 1 1644.9197 674.7754)" class="st10 st11 st12">20px</text>
				</g>
				<g>
					<path class="st1" d="M2274.7,666.9c0,10.4-8.4,18.8-18.8,18.8h-21h-21c-10.4,0-18.8-8.4-18.8-18.8l0,0l0,0
						c0-10.4,8.4-18.8,18.8-18.8h21h21C2266.2,648,2274.7,656.5,2274.7,666.9L2274.7,666.9L2274.7,666.9z"/>
					<text transform="matrix(1 0 0 1 2207.3687 674.7754)" class="st10 st11 st12">20px</text>
				</g>
			</g>
		</g>
	</g>
</g>
</svg>
