<svg xmlns="http://www.w3.org/2000/svg" viewBox="0 0 1000 326" role="img" aria-label="Alternative Airlines" class="logo" width="145" height="50">
    <title>Alternative Airlines</title>
    <path fill="#6dcff6" d="M835.1 196.3a18.8 18.8 0 0 0-4.5-8.7L810 168.3a11.5 11.5 0 0 0-8.7-2.8l-4 .7-1 .1-9.6 1.6-1.2.2-8 1.3a11.3 11.3 0 0 0-7.3 5.3l-11.6 24.4a18.1 18.1 0 0 0-1.4 9.7l16.5 96a8.7 8.7 0 0 0 10 7l62.7-10c4.7-.8 6.1-4.9 5.3-9.5zm-38.4 6a13.6 13.6 0 1 1 11.2-15.5 13.6 13.6 0 0 1-11.2 15.6z"></path>
    <path fill="#be1e2d" d="M829.7 213.5a20.3 20.3 0 0 0-2-10.4L812.4 177a12.5 12.5 0 0 0-8.2-5.7l-4.3-.5-1-.2-10.4-1.4-1.3-.1-8.6-1.2a12 12 0 0 0-9.3 3.3l-19.5 21.6a19.7 19.7 0 0 0-4.4 9.4l-12.9 104.3a9.4 9.4 0 0 0 8 10.4l67.9 9.1c5 .7 7.8-3.1 8.5-8.2zm-41.6-5.6a14.7 14.7 0 1 1 16.5-12.6A14.7 14.7 0 0 1 788 208z"></path>
    <path fill="#005aa9" d="M258.3 36.4h-37.2V138c0 3.1-1.7 4.9-4.7 4.9h-3.3a4.5 4.5 0 0 1-4.9-4.9V36.4h-37a4.5 4.5 0 0 1-4.8-4.9v-2a4.5 4.5 0 0 1 4.8-4.8h87.2a4.5 4.5 0 0 1 4.9 4.8v2c0 3-2 4.9-5 4.9zm421 100.8c.5 1.9.4 3.3-.4 4.3a4.2 4.2 0 0 1-3.5 1.5h-3.7a5.1 5.1 0 0 1-5.4-3.8L654 105.8h-45.9L596 139.2c-.7 2.5-2.5 3.8-5.3 3.8h-3.5a4.4 4.4 0 0 1-3.8-1.5c-.5-.7-1-2-.4-4.2l40.3-108.8a5 5 0 0 1 5.2-3.8h5.5a5 5 0 0 1 5.2 3.8zM635.1 53c-1.3-4-3-10.3-3.8-13.4a284 284 0 0 1-4 13.4L612 94.4h38.3zM238 295.5a4.2 4.2 0 0 1 .3 4.2 4.1 4.1 0 0 1-3.7 1.7h-4.3a5.7 5.7 0 0 1-5.5-3.2l-24.7-46h-28.4v44.4c0 3-1.7 4.8-4.7 4.8h-3.4c-3 0-4.7-1.8-4.7-4.8V187.9c0-3.1 1.7-4.9 4.7-4.9H195c10.2 0 16.3 1 21.5 3.4a31.5 31.5 0 0 1 17.7 30c0 15.6-8.7 28.6-21.8 32.6a45 45 0 0 1 2.6 4.3zM209.2 197c-3-1.4-6.3-2.2-15-2.2h-22.6v45.7h27.1c13.6 0 22.4-9.3 22.4-23.7 0-9.1-4.4-16.5-11.9-19.8zM177 143a4.5 4.5 0 0 0 4.8-4.9v-2c0-3-1.8-4.8-4.8-4.8h-49.3V29.5c0-3-1.8-4.8-4.7-4.8h-3.5c-3 0-4.7 1.7-4.7 4.8v108.6c0 3.1 1.7 4.9 4.7 4.9zm-50.7 40h-3.5c-3 0-4.7 1.8-4.7 4.9v108.6c0 3 1.7 4.8 4.7 4.8h3.5c3 0 4.7-1.8 4.7-4.8V187.9c0-3-1.8-4.9-4.7-4.9zm157.4-40h60.8a4.5 4.5 0 0 0 4.8-4.9v-2a4.5 4.5 0 0 0-4.8-4.8H292v-42h39.5a4.5 4.5 0 0 0 4.9-4.9v-2.2c0-3-1.8-4.6-4.8-4.6H292V36.4h49.5c3 0 4.9-1.8 4.9-4.9v-2a4.5 4.5 0 0 0-4.9-4.8h-57.7c-3 0-4.7 1.7-4.7 4.8v108.6c0 3.1 1.7 4.9 4.7 4.9zm-187-5.8a4.8 4.8 0 0 1-.4 4.4 4.2 4.2 0 0 1-3.5 1.4H89a5 5 0 0 1-5.3-3.8l-12.3-33.4h-46l-12.1 33.4a5 5 0 0 1-5.3 3.8H4.6a4.4 4.4 0 0 1-3.8-1.5 4.7 4.7 0 0 1-.4-4.2L40.7 28.5a5 5 0 0 1 5.2-3.8h5.5a5 5 0 0 1 5.1 3.8zM52.5 53c-1.3-4-3-10.3-3.8-13.4a277 277 0 0 1-4 13.4L29.4 94.4h38.3zm44.1 242.7c.5 1.8.4 3.3-.4 4.3a4.2 4.2 0 0 1-3.6 1.5H89a5.1 5.1 0 0 1-5.3-3.9l-12.4-33.4H25.4l-12.1 33.5c-.7 2.4-2.6 3.8-5.4 3.8H4.5a4.4 4.4 0 0 1-3.8-1.5 4.7 4.7 0 0 1-.4-4.3L40.6 187a5 5 0 0 1 5.2-3.9h5.4a5 5 0 0 1 5.2 3.9zm-44.2-84.4c-1.4-4-3-10.2-3.9-13.4-.8 3.2-2.6 9.5-4 13.4l-15.2 41.5h38.2zm942.7-80h-52.5v-42h39.5c3 0 5-1.8 5-4.8v-2.2c0-3-1.9-4.6-5-4.6h-39.5V36.4h49.5a4.5 4.5 0 0 0 4.9-4.9v-2a4.5 4.5 0 0 0-4.8-4.8h-57.8c-3 0-4.7 1.7-4.7 4.8v108.6c0 3.1 1.7 4.9 4.7 4.9h60.7a4.5 4.5 0 0 0 4.9-4.9v-2c0-3-1.8-4.8-4.9-4.8zM907.8 24.8H904a5 5 0 0 0-5.2 3.8L867.3 114c-1.5 4.3-3.2 10.3-4 13.3-.8-3-2.5-9-4-13.3l-31.1-85.5a5.1 5.1 0 0 0-5.4-3.8H819c-2.2 0-3.3.8-3.8 1.5s-1 2-.2 4.2l40.4 108.8a5 5 0 0 0 5.2 3.8h5.8a5.1 5.1 0 0 0 5-3.8L912 30.4a4.8 4.8 0 0 0-.5-4.3 4.2 4.2 0 0 0-3.5-1.4zm-357 115.2a5.9 5.9 0 0 0 5.5 3h4c3 0 4.7-1.7 4.7-4.8V29.5c0-3-1.7-4.8-4.7-4.8H557a4.5 4.5 0 0 0-4.9 4.8v80c0 4.2.5 10 .8 13.4-1.9-3.3-5.6-9.6-8.5-13.8l-57.8-81.4a6.4 6.4 0 0 0-5.6-3h-4c-3 0-4.7 1.7-4.7 4.8v108.6c0 3.1 1.7 4.9 4.7 4.9h3.5c2.9 0 4.7-1.8 4.7-4.9v-80c0-4.2-.5-10-.8-13.3a251 251 0 0 0 8.5 13.7zm84 96c-13-5.7-25.4-11-25.4-23.5 0-11.2 9.7-19 23.7-19 10 0 17.4 4.2 22.1 7.3a5.2 5.2 0 0 0 4 1 4.6 4.6 0 0 0 2.8-2.4l1.5-2.6c1.5-2.5 1.1-4.7-1.2-6.4a48 48 0 0 0-28.8-9.3c-22 0-37.3 13.1-37.3 32 0 19.5 16.2 26.7 31.8 33.6 13.6 6 26.4 11.6 26.4 25.1 0 11.5-9.2 19.3-23 19.3a43 43 0 0 1-26.6-10c-2.6-1.9-4.9-1.7-6.8.6l-2 2.5c-1.7 2.4-1.5 4.6.6 6.8a56 56 0 0 0 34.7 12.5c21.4 0 36.3-13.5 36.3-32.8 0-20.7-17.4-28.1-32.7-34.7zm-58.5 53.7h-52.5v-42h39.5a4.5 4.5 0 0 0 5-4.8v-2.2c0-3-1.9-4.7-5-4.7h-39.5v-41.2h49.5a4.5 4.5 0 0 0 4.9-4.8v-2a4.5 4.5 0 0 0-4.9-4.9h-57.7c-3 0-4.7 1.8-4.7 4.9v108.6c0 3 1.7 4.9 4.7 4.9h60.7a4.5 4.5 0 0 0 4.9-4.9v-2a4.5 4.5 0 0 0-4.9-4.9zm187.2-265h-87.2a4.5 4.5 0 0 0-4.8 4.9v2a4.5 4.5 0 0 0 4.8 4.8h37.1v101.8a4.5 4.5 0 0 0 4.9 4.9h3.3c3 0 4.7-1.8 4.7-4.9V36.4h37.2c3 0 4.9-1.8 4.9-4.9v-2a4.5 4.5 0 0 0-5-4.8zM475 183h-3.4a4.5 4.5 0 0 0-4.8 4.9v80c0 4.2.5 10 .8 13.3-2-3.2-5.7-9.6-8.5-13.7L401.3 186a6.4 6.4 0 0 0-5.6-3h-4c-3 0-4.6 1.8-4.6 4.9v108.6c0 3 1.7 4.8 4.6 4.8h3.5c3 0 4.7-1.8 4.7-4.8v-80c0-4.2-.4-10-.7-13.4 1.9 3.3 5.6 9.6 8.4 13.8l58 81.4a6 6 0 0 0 5.2 3h4.3c3 0 4.7-1.8 4.7-4.9V188c0-3.1-1.7-4.9-4.7-4.9zm-124 0h-3.4c-3 0-4.7 1.8-4.7 4.9v108.6c0 3 1.7 4.8 4.7 4.8h3.5c3 0 4.7-1.8 4.7-4.8V187.9c0-3-1.8-4.9-4.7-4.9zM792.5 24.7H789c-3 0-4.7 1.7-4.7 4.8v150c0 3.1 1.7 4.9 4.7 4.9h3.5c2.9 0 4.7-1.9 4.7-4.9v-150c0-3-1.8-4.8-4.7-4.8zM412.3 93.8h-28.4v44.4c0 3-1.8 4.8-4.7 4.8h-3.5c-3 0-4.7-1.7-4.7-4.8V29.5c0-3 1.7-4.8 4.7-4.8h31.6c10.3 0 16.3 1 21.6 3.4A31.6 31.6 0 0 1 446.6 58c0 15.6-8.8 28.6-21.9 32.7a45.1 45.1 0 0 1 2.7 4.2l22.8 42.3a4.2 4.2 0 0 1 .3 4.1 4.1 4.1 0 0 1-3.8 1.7h-4.3a5.7 5.7 0 0 1-5.4-3.2zm9.2-55.3c-3-1.4-6.3-2.1-15-2.1H384V82H411c13.6 0 22.4-9.4 22.4-23.8 0-9-4.4-16.5-11.9-19.8zm-99.3 251.1H273V188c0-3-1.8-4.9-4.7-4.9h-3.5c-3 0-4.7 1.8-4.7 4.9v108.6c0 3.1 1.7 4.9 4.7 4.9h57.5a4.5 4.5 0 0 0 5-4.9v-2a4.5 4.5 0 0 0-5-4.9z"></path>
</svg>